<mxfile host="Electron" agent="Mozilla/5.0 (Macintosh; Intel Mac OS X 10_15_7) AppleWebKit/537.36 (KHTML, like Gecko) draw.io/27.0.9 Chrome/134.0.6998.205 Electron/35.4.0 Safari/537.36" version="27.0.9" pages="5">
  <diagram id="LzyEgGGP9L0qFzTr234J" name="Overview">
    <mxGraphModel dx="1540" dy="1089" grid="1" gridSize="10" guides="1" tooltips="1" connect="1" arrows="1" fold="1" page="1" pageScale="1" pageWidth="1169" pageHeight="827" math="0" shadow="0">
      <root>
        <mxCell id="0" />
        <mxCell id="1" parent="0" />
        <mxCell id="7FACqpUethFOk5VPM3G4-1" value="" style="shape=note;whiteSpace=wrap;html=1;backgroundOutline=1;darkOpacity=0.05;strokeWidth=2;align=left;labelPosition=center;verticalLabelPosition=middle;verticalAlign=middle;fillColor=#f8cecc;strokeColor=#b85450;" parent="1" vertex="1">
          <mxGeometry x="53" y="90" width="370" height="430" as="geometry" />
        </mxCell>
        <mxCell id="7FACqpUethFOk5VPM3G4-2" value="&lt;div&gt;&lt;font face=&quot;Courier New&quot;&gt;&lt;span style=&quot;font-size: 16px;&quot;&gt;&quot;&lt;b&gt;id&lt;/b&gt;&quot;: SOLR_STRING,&lt;/span&gt;&lt;/font&gt;&lt;/div&gt;&lt;div&gt;&lt;font face=&quot;Courier New&quot;&gt;&lt;span style=&quot;font-size: 16px;&quot;&gt;&quot;&lt;b&gt;node_type&lt;/b&gt;&quot;:&amp;nbsp;&lt;/span&gt;&lt;/font&gt;&lt;span style=&quot;font-family: &amp;quot;Courier New&amp;quot;; font-size: 16px;&quot;&gt;&quot;&lt;b&gt;profile&lt;/b&gt;&quot;&lt;/span&gt;&lt;font face=&quot;Courier New&quot;&gt;&lt;span style=&quot;font-size: 16px;&quot;&gt;,&lt;/span&gt;&lt;/font&gt;&lt;/div&gt;&lt;div&gt;&lt;font face=&quot;Courier New&quot;&gt;&lt;span style=&quot;font-size: 16px;&quot;&gt;&quot;&lt;b&gt;provider&lt;/b&gt;&quot;:&amp;nbsp;&lt;/span&gt;&lt;/font&gt;&lt;span style=&quot;font-family: &amp;quot;Courier New&amp;quot;; font-size: 16px;&quot;&gt;SOLR_STRING&lt;/span&gt;&lt;font face=&quot;Courier New&quot;&gt;&lt;span style=&quot;font-size: 16px;&quot;&gt;,&lt;/span&gt;&lt;/font&gt;&lt;/div&gt;&lt;div&gt;&lt;font face=&quot;Courier New&quot;&gt;&lt;span style=&quot;font-size: 16px;&quot;&gt;&quot;&lt;b&gt;country&lt;/b&gt;&quot;:&amp;nbsp;&lt;/span&gt;&lt;/font&gt;&lt;span style=&quot;font-family: &amp;quot;Courier New&amp;quot;; font-size: 16px;&quot;&gt;SOLR_STRING&lt;/span&gt;&lt;font face=&quot;Courier New&quot;&gt;&lt;span style=&quot;font-size: 16px;&quot;&gt;,&lt;/span&gt;&lt;/font&gt;&lt;/div&gt;&lt;div&gt;&lt;font face=&quot;Courier New&quot;&gt;&lt;span style=&quot;font-size: 16px;&quot;&gt;&quot;&lt;b&gt;demcode&lt;/b&gt;&quot;: SOLR_INT,&lt;/span&gt;&lt;/font&gt;&lt;/div&gt;&lt;div&gt;&lt;font face=&quot;Courier New&quot;&gt;&lt;span style=&quot;font-size: 16px;&quot;&gt;&quot;&lt;b&gt;gender&lt;/b&gt;&quot;:&amp;nbsp;&lt;/span&gt;&lt;/font&gt;&lt;span style=&quot;font-family: &amp;quot;Courier New&amp;quot;; font-size: 16px;&quot;&gt;SOLR_STRING&lt;/span&gt;&lt;font face=&quot;Courier New&quot;&gt;&lt;span style=&quot;font-size: 16px;&quot;&gt;,&lt;/span&gt;&lt;/font&gt;&lt;/div&gt;&lt;div&gt;&lt;font face=&quot;Courier New&quot;&gt;&lt;span style=&quot;font-size: 16px;&quot;&gt;&quot;&lt;b&gt;omscore&lt;/b&gt;&quot;: SOLR_FLOAT,&lt;/span&gt;&lt;/font&gt;&lt;/div&gt;&lt;div&gt;&lt;font face=&quot;Courier New&quot;&gt;&lt;span style=&quot;font-size: 16px;&quot;&gt;&quot;&lt;b&gt;updtime&lt;/b&gt;&quot;:&amp;nbsp;&lt;/span&gt;&lt;/font&gt;&lt;span style=&quot;font-family: &amp;quot;Courier New&amp;quot;; font-size: 16px;&quot;&gt;SOLR_DATE&lt;/span&gt;&lt;font face=&quot;Courier New&quot;&gt;&lt;span style=&quot;font-size: 16px;&quot;&gt;,&lt;/span&gt;&lt;/font&gt;&lt;/div&gt;&lt;div&gt;&lt;font face=&quot;Courier New&quot;&gt;&lt;span style=&quot;font-size: 16px;&quot;&gt;&quot;&lt;b&gt;upddate&lt;/b&gt;&quot;:&amp;nbsp;&lt;/span&gt;&lt;/font&gt;&lt;span style=&quot;font-family: &amp;quot;Courier New&amp;quot;; font-size: 16px;&quot;&gt;SOLR_DATE&lt;/span&gt;&lt;font face=&quot;Courier New&quot;&gt;&lt;span style=&quot;font-size: 16px;&quot;&gt;,&lt;/span&gt;&lt;/font&gt;&lt;/div&gt;&lt;div&gt;&lt;font face=&quot;Courier New&quot;&gt;&lt;span style=&quot;font-size: 16px;&quot;&gt;&quot;&lt;b&gt;tntcode&lt;/b&gt;&quot;: SOLR_INT,&lt;/span&gt;&lt;/font&gt;&lt;/div&gt;&lt;div&gt;&lt;font face=&quot;Courier New&quot;&gt;&lt;span style=&quot;font-size: 16px;&quot;&gt;&quot;&lt;b&gt;bstate&lt;/b&gt;&quot;: SOLR_BOOLEAN,&lt;/span&gt;&lt;/font&gt;&lt;/div&gt;&lt;div&gt;&lt;font face=&quot;Courier New&quot;&gt;&lt;span style=&quot;font-size: 16px;&quot;&gt;&quot;&lt;b&gt;scode&lt;/b&gt;&quot;: SOLR_INT,&lt;/span&gt;&lt;/font&gt;&lt;/div&gt;&lt;div&gt;&lt;font face=&quot;Courier New&quot;&gt;&lt;span style=&quot;font-size: 16px;&quot;&gt;&quot;&lt;b&gt;ncode&lt;/b&gt;&quot;: SOLR_DOUBLE,&lt;/span&gt;&lt;/font&gt;&lt;/div&gt;&lt;div&gt;&lt;font face=&quot;Courier New&quot;&gt;&lt;span style=&quot;font-size: 16px;&quot;&gt;&quot;&lt;b&gt;bicode&lt;/b&gt;&quot;: SOLR_LONG,&lt;/span&gt;&lt;/font&gt;&lt;/div&gt;&lt;div&gt;&lt;font face=&quot;Courier New&quot;&gt;&lt;span style=&quot;font-size: 16px;&quot;&gt;&quot;&lt;b&gt;fact_data&lt;/b&gt;&quot;: [&amp;lt;&amp;lt;NESTED&amp;gt;&amp;gt;],&lt;/span&gt;&lt;/font&gt;&lt;/div&gt;&lt;div&gt;&lt;font face=&quot;Courier New&quot;&gt;&lt;div style=&quot;&quot;&gt;&lt;span style=&quot;font-size: 16px;&quot;&gt;&quot;&lt;b&gt;flt_sports_ss&lt;/b&gt;&quot;:&amp;nbsp;&lt;/span&gt;&lt;span style=&quot;font-size: 16px; background-color: transparent; color: light-dark(rgb(0, 0, 0), rgb(255, 255, 255));&quot;&gt;SOLR_STRING&lt;/span&gt;&lt;span style=&quot;font-size: 16px; background-color: transparent; color: light-dark(rgb(0, 0, 0), rgb(255, 255, 255));&quot;&gt;[&lt;/span&gt;&lt;span style=&quot;background-color: transparent; color: light-dark(rgb(0, 0, 0), rgb(255, 255, 255)); font-size: 16px;&quot;&gt;],&lt;/span&gt;&lt;/div&gt;&lt;/font&gt;&lt;font face=&quot;Courier New&quot;&gt;&lt;span style=&quot;font-size: 16px;&quot;&gt;&quot;&lt;b&gt;flt_hobbies_ss&lt;/b&gt;&quot;:&amp;nbsp;&lt;/span&gt;&lt;span style=&quot;font-size: 16px; background-color: transparent; color: light-dark(rgb(0, 0, 0), rgb(255, 255, 255));&quot;&gt;SOLR_STRING&lt;/span&gt;&lt;span style=&quot;font-size: 16px; background-color: transparent; color: light-dark(rgb(0, 0, 0), rgb(255, 255, 255));&quot;&gt;[&lt;/span&gt;&lt;span style=&quot;background-color: transparent; color: light-dark(rgb(0, 0, 0), rgb(255, 255, 255)); font-size: 16px;&quot;&gt;],&lt;/span&gt;&lt;/font&gt;&lt;font face=&quot;Courier New&quot;&gt;&lt;/font&gt;&lt;font face=&quot;Courier New&quot;&gt;&lt;div style=&quot;&quot;&gt;&lt;span style=&quot;font-size: 16px;&quot;&gt;&quot;&lt;b&gt;flt_sizecm_i&lt;/b&gt;&quot;: SOLR_INT,&lt;/span&gt;&lt;/div&gt;&lt;div style=&quot;&quot;&gt;&lt;span style=&quot;font-size: 16px;&quot;&gt;&quot;&lt;b&gt;flt_bodytempcelsius_d&lt;/b&gt;&quot;: SOLR_DOUBLE,&lt;/span&gt;&lt;/div&gt;&lt;div style=&quot;&quot;&gt;&lt;span style=&quot;font-size: 16px;&quot;&gt;&quot;&lt;b&gt;flt_anniversarydate_dt&lt;/b&gt;&quot;: SOLR_DATE,&lt;/span&gt;&lt;/div&gt;&lt;div style=&quot;&quot;&gt;&lt;span style=&quot;font-size: 16px;&quot;&gt;&quot;&lt;b&gt;flt_clubmember_b&lt;/b&gt;&quot;: SOLR_BOOLEAN&lt;/span&gt;&lt;/div&gt;&lt;div style=&quot;font-size: 16px;&quot;&gt;&lt;br&gt;&lt;/div&gt;&lt;/font&gt;&lt;/div&gt;&lt;div&gt;&lt;br&gt;&lt;/div&gt;" style="text;html=1;align=left;verticalAlign=top;whiteSpace=wrap;rounded=0;" parent="1" vertex="1">
          <mxGeometry x="59" y="95" width="360" height="420" as="geometry" />
        </mxCell>
        <mxCell id="7FACqpUethFOk5VPM3G4-5" value="" style="endArrow=none;html=1;rounded=0;startArrow=diamondThin;startFill=1;strokeWidth=3;exitX=0.594;exitY=0.679;exitDx=0;exitDy=0;exitPerimeter=0;entryX=0;entryY=0.5;entryDx=0;entryDy=0;entryPerimeter=0;" parent="1" source="7FACqpUethFOk5VPM3G4-2" target="7FACqpUethFOk5VPM3G4-3" edge="1">
          <mxGeometry width="50" height="50" relative="1" as="geometry">
            <mxPoint x="546" y="659.9964285714286" as="sourcePoint" />
            <mxPoint x="590" y="684.55" as="targetPoint" />
          </mxGeometry>
        </mxCell>
        <mxCell id="Lobxu697zhIT1fY2Xtei-1" value="" style="endArrow=block;html=1;rounded=0;strokeWidth=3;endFill=1;entryX=0.999;entryY=0.727;entryDx=0;entryDy=0;entryPerimeter=0;exitX=0;exitY=0.5;exitDx=0;exitDy=0;exitPerimeter=0;" parent="1" source="J_xiPTteWR3OBKMqK_Wt-1" target="7FACqpUethFOk5VPM3G4-1" edge="1">
          <mxGeometry width="50" height="50" relative="1" as="geometry">
            <mxPoint x="800" y="370" as="sourcePoint" />
            <mxPoint x="850" y="520" as="targetPoint" />
            <Array as="points">
              <mxPoint x="680" y="403" />
            </Array>
          </mxGeometry>
        </mxCell>
        <mxCell id="InCAAJHptk3qP1Fnhfb9-1" value="" style="group" parent="1" vertex="1" connectable="0">
          <mxGeometry x="712" y="351" width="373" height="230" as="geometry" />
        </mxCell>
        <mxCell id="eZLfU4P8S1gQVFyg6nLj-1" value="" style="shape=note;whiteSpace=wrap;html=1;backgroundOutline=1;darkOpacity=0.05;strokeWidth=2;align=left;labelPosition=center;verticalLabelPosition=middle;verticalAlign=middle;fillColor=#ffe6cc;strokeColor=#d79b00;" parent="InCAAJHptk3qP1Fnhfb9-1" vertex="1">
          <mxGeometry width="373" height="230" as="geometry" />
        </mxCell>
        <mxCell id="eZLfU4P8S1gQVFyg6nLj-2" value="&lt;div&gt;&lt;font face=&quot;Courier New&quot;&gt;&lt;span style=&quot;font-size: 16px;&quot;&gt;&quot;&lt;b&gt;id&lt;/b&gt;&quot;: SOLR_STRING,&lt;/span&gt;&lt;/font&gt;&lt;/div&gt;&lt;div&gt;&lt;font face=&quot;Courier New&quot;&gt;&lt;span style=&quot;font-size: 16px;&quot;&gt;&quot;&lt;b&gt;main_id&lt;/b&gt;&quot;:&amp;nbsp;&lt;/span&gt;&lt;/font&gt;&lt;span style=&quot;font-family: &amp;quot;Courier New&amp;quot;; font-size: 16px;&quot;&gt;SOLR_STRING&lt;/span&gt;&lt;font face=&quot;Courier New&quot;&gt;&lt;span style=&quot;font-size: 16px;&quot;&gt;,&lt;/span&gt;&lt;/font&gt;&lt;/div&gt;&lt;div&gt;&lt;font face=&quot;Courier New&quot;&gt;&lt;span style=&quot;font-size: 16px;&quot;&gt;&quot;&lt;b&gt;node_type&lt;/b&gt;&quot;:&amp;nbsp;&lt;/span&gt;&lt;/font&gt;&lt;span style=&quot;font-family: &amp;quot;Courier New&amp;quot;; font-size: 16px;&quot;&gt;&quot;&lt;b&gt;survey&lt;/b&gt;&quot;&lt;/span&gt;&lt;font face=&quot;Courier New&quot;&gt;&lt;span style=&quot;font-size: 16px;&quot;&gt;,&lt;/span&gt;&lt;/font&gt;&lt;/div&gt;&lt;div&gt;&lt;font face=&quot;Courier New&quot;&gt;&lt;span style=&quot;font-size: 16px;&quot;&gt;&quot;&lt;b&gt;tenant&lt;/b&gt;&quot;:&amp;nbsp;&lt;/span&gt;&lt;/font&gt;&lt;span style=&quot;font-family: &amp;quot;Courier New&amp;quot;; font-size: 16px;&quot;&gt;SOLR_INTEGER&lt;/span&gt;&lt;font face=&quot;Courier New&quot;&gt;&lt;span style=&quot;font-size: 16px;&quot;&gt;,&lt;/span&gt;&lt;/font&gt;&lt;/div&gt;&lt;div&gt;&lt;font face=&quot;Courier New&quot;&gt;&lt;span style=&quot;font-size: 16px;&quot;&gt;&quot;&lt;b&gt;srv_monthlyincome_i&lt;/b&gt;&quot;:&amp;nbsp;&lt;/span&gt;&lt;/font&gt;&lt;span style=&quot;font-family: &amp;quot;Courier New&amp;quot;; font-size: 16px;&quot;&gt;SOLR_INTEGER&lt;/span&gt;&lt;font face=&quot;Courier New&quot;&gt;&lt;span style=&quot;font-size: 16px;&quot;&gt;,&lt;/span&gt;&lt;/font&gt;&lt;/div&gt;&lt;div&gt;&lt;font face=&quot;Courier New&quot;&gt;&lt;span style=&quot;font-size: 16px;&quot;&gt;&quot;&lt;b&gt;srv_monthlyspending_i&lt;/b&gt;&quot;:&amp;nbsp;&lt;/span&gt;&lt;/font&gt;&lt;span style=&quot;font-family: &amp;quot;Courier New&amp;quot;; font-size: 16px;&quot;&gt;SOLR_INTEGER&lt;/span&gt;&lt;font face=&quot;Courier New&quot;&gt;&lt;span style=&quot;font-size: 16px;&quot;&gt;,&lt;/span&gt;&lt;/font&gt;&lt;/div&gt;&lt;div&gt;&lt;font face=&quot;Courier New&quot;&gt;&lt;span style=&quot;font-size: 16px;&quot;&gt;&quot;&lt;b&gt;srv_martialstatus_s&lt;/b&gt;&quot;:&amp;nbsp;&lt;/span&gt;&lt;/font&gt;&lt;span style=&quot;font-family: &amp;quot;Courier New&amp;quot;; font-size: 16px;&quot;&gt;SOLR_STRING&lt;/span&gt;&lt;font face=&quot;Courier New&quot;&gt;&lt;span style=&quot;font-size: 16px;&quot;&gt;,&lt;/span&gt;&lt;/font&gt;&lt;/div&gt;&lt;div&gt;&lt;font face=&quot;Courier New&quot;&gt;&lt;span style=&quot;font-size: 16px;&quot;&gt;&quot;&lt;b&gt;srv_children_i&lt;/b&gt;&quot;:&amp;nbsp;&lt;/span&gt;&lt;/font&gt;&lt;span style=&quot;font-family: &amp;quot;Courier New&amp;quot;; font-size: 16px;&quot;&gt;SOLR_INTEGER&lt;/span&gt;&lt;font face=&quot;Courier New&quot;&gt;&lt;span style=&quot;font-size: 16px;&quot;&gt;,&lt;/span&gt;&lt;/font&gt;&lt;/div&gt;&lt;div&gt;&lt;font style=&quot;background-color: transparent;&quot; face=&quot;Courier New&quot;&gt;&lt;font color=&quot;rgba(0, 0, 0, 0)&quot;&gt;&lt;span style=&quot;font-size: 16px;&quot;&gt;&quot;&lt;/span&gt;&lt;/font&gt;&lt;font&gt;&lt;font&gt;&lt;span style=&quot;font-size: 16px;&quot;&gt;&lt;b&gt;srv_favcolor_ss&lt;/b&gt;&lt;/span&gt;&lt;font color=&quot;rgba(0, 0, 0, 0)&quot;&gt;&lt;span style=&quot;font-size: 16px;&quot;&gt;&quot;:&amp;nbsp;&lt;/span&gt;&lt;/font&gt;&lt;/font&gt;&lt;/font&gt;&lt;/font&gt;&lt;span style=&quot;font-family: &amp;quot;Courier New&amp;quot;; font-size: 16px;&quot;&gt;SOLR_STRING[]&lt;/span&gt;&lt;font style=&quot;background-color: transparent; color: light-dark(rgb(0, 0, 0), rgb(255, 255, 255));&quot; face=&quot;Courier New&quot;&gt;&lt;span style=&quot;font-size: 16px;&quot;&gt;,&lt;/span&gt;&lt;/font&gt;&lt;/div&gt;&lt;div&gt;&lt;font face=&quot;Courier New&quot;&gt;&lt;span style=&quot;font-size: 16px;&quot;&gt;&quot;&lt;b&gt;srv_gender_s&lt;/b&gt;&quot;:&amp;nbsp;&lt;/span&gt;&lt;/font&gt;&lt;span style=&quot;font-family: &amp;quot;Courier New&amp;quot;; font-size: 16px;&quot;&gt;SOLR_STRING,&lt;/span&gt;&lt;/div&gt;&lt;div&gt;&lt;div&gt;&lt;font face=&quot;Courier New&quot;&gt;&lt;span style=&quot;font-size: 16px;&quot;&gt;...&lt;/span&gt;&lt;/font&gt;&lt;/div&gt;&lt;/div&gt;" style="text;html=1;align=left;verticalAlign=top;whiteSpace=wrap;rounded=0;" parent="InCAAJHptk3qP1Fnhfb9-1" vertex="1">
          <mxGeometry x="3" y="5" width="370" height="225" as="geometry" />
        </mxCell>
        <mxCell id="InCAAJHptk3qP1Fnhfb9-2" value="" style="group" parent="1" vertex="1" connectable="0">
          <mxGeometry x="758" y="91" width="327" height="210" as="geometry" />
        </mxCell>
        <mxCell id="J_xiPTteWR3OBKMqK_Wt-1" value="" style="shape=note;whiteSpace=wrap;html=1;backgroundOutline=1;darkOpacity=0.05;strokeWidth=2;align=left;labelPosition=center;verticalLabelPosition=middle;verticalAlign=middle;fillColor=#d5e8d4;strokeColor=#82b366;" parent="InCAAJHptk3qP1Fnhfb9-2" vertex="1">
          <mxGeometry width="327" height="210" as="geometry" />
        </mxCell>
        <mxCell id="J_xiPTteWR3OBKMqK_Wt-2" value="&lt;div&gt;&lt;font face=&quot;Courier New&quot;&gt;&lt;span style=&quot;font-size: 16px;&quot;&gt;&quot;&lt;b&gt;id&lt;/b&gt;&quot;: SOLR_STRING,&lt;/span&gt;&lt;/font&gt;&lt;/div&gt;&lt;div&gt;&lt;font face=&quot;Courier New&quot;&gt;&lt;span style=&quot;font-size: 16px;&quot;&gt;&quot;&lt;b&gt;main_id&lt;/b&gt;&quot;:&amp;nbsp;&lt;/span&gt;&lt;/font&gt;&lt;span style=&quot;font-family: &amp;quot;Courier New&amp;quot;; font-size: 16px;&quot;&gt;SOLR_STRING&lt;/span&gt;&lt;font face=&quot;Courier New&quot;&gt;&lt;span style=&quot;font-size: 16px;&quot;&gt;,&lt;/span&gt;&lt;/font&gt;&lt;/div&gt;&lt;div&gt;&lt;font face=&quot;Courier New&quot;&gt;&lt;span style=&quot;font-size: 16px;&quot;&gt;&quot;&lt;b&gt;node_type&lt;/b&gt;&quot;:&amp;nbsp;&lt;/span&gt;&lt;/font&gt;&lt;span style=&quot;font-family: &amp;quot;Courier New&amp;quot;; font-size: 16px;&quot;&gt;&quot;&lt;b&gt;pos&lt;/b&gt;&quot;&lt;/span&gt;&lt;font face=&quot;Courier New&quot;&gt;&lt;span style=&quot;font-size: 16px;&quot;&gt;,&lt;/span&gt;&lt;/font&gt;&lt;/div&gt;&lt;div&gt;&lt;font face=&quot;Courier New&quot;&gt;&lt;span style=&quot;font-size: 16px;&quot;&gt;&quot;&lt;b&gt;pos_invno_i&lt;/b&gt;&quot;:&amp;nbsp;&lt;/span&gt;&lt;/font&gt;&lt;span style=&quot;font-family: &amp;quot;Courier New&amp;quot;; font-size: 16px;&quot;&gt;SOLR_INTEGER&lt;/span&gt;&lt;font face=&quot;Courier New&quot;&gt;&lt;span style=&quot;font-size: 16px;&quot;&gt;,&lt;/span&gt;&lt;/font&gt;&lt;/div&gt;&lt;div&gt;&lt;font face=&quot;Courier New&quot;&gt;&lt;span style=&quot;font-size: 16px;&quot;&gt;&quot;&lt;b&gt;pos_invdate_dt&lt;/b&gt;&quot;:&amp;nbsp;&lt;/span&gt;&lt;/font&gt;&lt;span style=&quot;font-family: &amp;quot;Courier New&amp;quot;; font-size: 16px;&quot;&gt;SOLR_DATE&lt;/span&gt;&lt;font face=&quot;Courier New&quot;&gt;&lt;span style=&quot;font-size: 16px;&quot;&gt;,&lt;/span&gt;&lt;/font&gt;&lt;/div&gt;&lt;div&gt;&lt;font face=&quot;Courier New&quot;&gt;&lt;span style=&quot;font-size: 16px;&quot;&gt;&quot;&lt;b&gt;pos_code_s&lt;/b&gt;&quot;:&amp;nbsp;&lt;/span&gt;&lt;/font&gt;&lt;span style=&quot;font-family: &amp;quot;Courier New&amp;quot;; font-size: 16px;&quot;&gt;SOLR_STRING&lt;/span&gt;&lt;font face=&quot;Courier New&quot;&gt;&lt;span style=&quot;font-size: 16px;&quot;&gt;,&lt;/span&gt;&lt;/font&gt;&lt;/div&gt;&lt;div&gt;&lt;font face=&quot;Courier New&quot;&gt;&lt;span style=&quot;font-size: 16px;&quot;&gt;&quot;&lt;b&gt;pos_description_s&lt;/b&gt;&quot;:&amp;nbsp;&lt;/span&gt;&lt;/font&gt;&lt;span style=&quot;font-family: &amp;quot;Courier New&amp;quot;; font-size: 16px;&quot;&gt;SOLR_STRING&lt;/span&gt;&lt;font face=&quot;Courier New&quot;&gt;&lt;span style=&quot;font-size: 16px;&quot;&gt;,&lt;/span&gt;&lt;/font&gt;&lt;/div&gt;&lt;div&gt;&lt;font face=&quot;Courier New&quot;&gt;&lt;span style=&quot;font-size: 16px;&quot;&gt;&quot;&lt;b&gt;pos_quantity_i&lt;/b&gt;&quot;:&amp;nbsp;&lt;/span&gt;&lt;/font&gt;&lt;span style=&quot;font-family: &amp;quot;Courier New&amp;quot;; font-size: 16px;&quot;&gt;SOLR_INTEGER&lt;/span&gt;&lt;font face=&quot;Courier New&quot;&gt;&lt;span style=&quot;font-size: 16px;&quot;&gt;,&lt;/span&gt;&lt;/font&gt;&lt;/div&gt;&lt;div&gt;&lt;font style=&quot;background-color: transparent;&quot; face=&quot;Courier New&quot;&gt;&lt;font color=&quot;rgba(0, 0, 0, 0)&quot;&gt;&lt;span style=&quot;font-size: 16px;&quot;&gt;&quot;&lt;/span&gt;&lt;/font&gt;&lt;font&gt;&lt;span style=&quot;font-size: 16px;&quot;&gt;&lt;b&gt;pos_uprice_d&lt;/b&gt;&lt;/span&gt;&lt;font color=&quot;rgba(0, 0, 0, 0)&quot;&gt;&lt;span style=&quot;font-size: 16px;&quot;&gt;&quot;:&amp;nbsp;&lt;/span&gt;&lt;/font&gt;&lt;/font&gt;&lt;/font&gt;&lt;span style=&quot;background-color: transparent; color: light-dark(rgb(0, 0, 0), rgb(255, 255, 255)); font-family: &amp;quot;Courier New&amp;quot;; font-size: 16px;&quot;&gt;SOLR_DOUBLE&lt;/span&gt;&lt;font style=&quot;background-color: transparent; color: light-dark(rgb(0, 0, 0), rgb(255, 255, 255));&quot; face=&quot;Courier New&quot;&gt;&lt;span style=&quot;font-size: 16px;&quot;&gt;,&lt;/span&gt;&lt;/font&gt;&lt;/div&gt;&lt;div&gt;&lt;font face=&quot;Courier New&quot;&gt;&lt;span style=&quot;font-size: 16px;&quot;&gt;&quot;&lt;b&gt;pos_country_s&lt;/b&gt;&quot;:&amp;nbsp;&lt;/span&gt;&lt;/font&gt;&lt;span style=&quot;font-family: &amp;quot;Courier New&amp;quot;; font-size: 16px;&quot;&gt;SOLR_STRING&lt;/span&gt;&lt;/div&gt;&lt;div&gt;&lt;br&gt;&lt;/div&gt;" style="text;html=1;align=left;verticalAlign=top;whiteSpace=wrap;rounded=0;" parent="InCAAJHptk3qP1Fnhfb9-2" vertex="1">
          <mxGeometry x="3" y="5" width="324" height="205" as="geometry" />
        </mxCell>
        <mxCell id="GdToK5e3EPzfeksUjeKf-3" value="*" style="text;html=1;align=center;verticalAlign=middle;whiteSpace=wrap;rounded=0;fontSize=18;" parent="InCAAJHptk3qP1Fnhfb9-2" vertex="1">
          <mxGeometry x="-48" y="99" width="60" height="30" as="geometry" />
        </mxCell>
        <mxCell id="InCAAJHptk3qP1Fnhfb9-3" value="" style="group" parent="1" vertex="1" connectable="0">
          <mxGeometry x="319" y="168" width="350" height="210" as="geometry" />
        </mxCell>
        <mxCell id="7FACqpUethFOk5VPM3G4-3" value="" style="shape=note;whiteSpace=wrap;html=1;backgroundOutline=1;darkOpacity=0.05;strokeWidth=2;align=left;labelPosition=center;verticalLabelPosition=middle;verticalAlign=middle;fillColor=#dae8fc;strokeColor=#6c8ebf;" parent="InCAAJHptk3qP1Fnhfb9-3" vertex="1">
          <mxGeometry width="350" height="210" as="geometry" />
        </mxCell>
        <mxCell id="7FACqpUethFOk5VPM3G4-4" value="&lt;div&gt;&lt;font face=&quot;Courier New&quot;&gt;&lt;span style=&quot;font-size: 16px;&quot;&gt;&quot;&lt;b&gt;id&lt;/b&gt;&quot;: SOLR_STRING(auto),&lt;/span&gt;&lt;/font&gt;&lt;/div&gt;&lt;div&gt;&lt;font face=&quot;Courier New&quot;&gt;&lt;span style=&quot;font-size: 16px;&quot;&gt;&quot;&lt;b&gt;node_type&lt;/b&gt;&quot;:&amp;nbsp;&lt;/span&gt;&lt;/font&gt;&lt;span style=&quot;font-family: &amp;quot;Courier New&amp;quot;; font-size: 16px;&quot;&gt;&quot;&lt;b&gt;fact&lt;/b&gt;&quot;&lt;/span&gt;&lt;font face=&quot;Courier New&quot;&gt;&lt;span style=&quot;font-size: 16px;&quot;&gt;,&lt;/span&gt;&lt;/font&gt;&lt;/div&gt;&lt;div&gt;&lt;font face=&quot;Courier New&quot;&gt;&lt;span style=&quot;font-size: 16px;&quot;&gt;&quot;&lt;b&gt;fct_provider_s&lt;/b&gt;&quot;:&amp;nbsp;&lt;/span&gt;&lt;/font&gt;&lt;span style=&quot;font-family: &amp;quot;Courier New&amp;quot;; font-size: 16px;&quot;&gt;SOLR_STRING&lt;/span&gt;&lt;font face=&quot;Courier New&quot;&gt;&lt;span style=&quot;font-size: 16px;&quot;&gt;,&lt;/span&gt;&lt;/font&gt;&lt;/div&gt;&lt;div&gt;&lt;font face=&quot;Courier New&quot;&gt;&lt;span style=&quot;font-size: 16px;&quot;&gt;&quot;&lt;b&gt;fct_has_pet_b&lt;/b&gt;&quot;:&amp;nbsp;&lt;/span&gt;&lt;/font&gt;&lt;span style=&quot;font-family: &amp;quot;Courier New&amp;quot;; font-size: 16px;&quot;&gt;SOLR_BOOLEAN&lt;/span&gt;&lt;font face=&quot;Courier New&quot;&gt;&lt;span style=&quot;font-size: 16px;&quot;&gt;,&lt;/span&gt;&lt;/font&gt;&lt;/div&gt;&lt;div&gt;&lt;font face=&quot;Courier New&quot;&gt;&lt;span style=&quot;font-size: 16px;&quot;&gt;&quot;&lt;b&gt;fct_has_dog_b&lt;/b&gt;&quot;:&amp;nbsp;&lt;/span&gt;&lt;/font&gt;&lt;span style=&quot;font-family: &amp;quot;Courier New&amp;quot;; font-size: 16px;&quot;&gt;SOLR_BOOLEAN&lt;/span&gt;&lt;font face=&quot;Courier New&quot;&gt;&lt;span style=&quot;font-size: 16px;&quot;&gt;,&lt;/span&gt;&lt;/font&gt;&lt;/div&gt;&lt;div&gt;&lt;font face=&quot;Courier New&quot;&gt;&lt;span style=&quot;font-size: 16px;&quot;&gt;&quot;&lt;b&gt;fct_has_cat_b&lt;/b&gt;&quot;:&amp;nbsp;&lt;/span&gt;&lt;/font&gt;&lt;span style=&quot;font-family: &amp;quot;Courier New&amp;quot;; font-size: 16px;&quot;&gt;SOLR_BOOLEAN&lt;/span&gt;&lt;font face=&quot;Courier New&quot;&gt;&lt;span style=&quot;font-size: 16px;&quot;&gt;,&lt;/span&gt;&lt;/font&gt;&lt;/div&gt;&lt;div&gt;&lt;font face=&quot;Courier New&quot;&gt;&lt;span style=&quot;font-size: 16px;&quot;&gt;&quot;&lt;b&gt;fct_as_bird&lt;/b&gt;&quot;:&amp;nbsp;&lt;/span&gt;&lt;/font&gt;&lt;span style=&quot;font-family: &amp;quot;Courier New&amp;quot;; font-size: 16px;&quot;&gt;SOLR_BOOLEAN&lt;/span&gt;&lt;font face=&quot;Courier New&quot;&gt;&lt;span style=&quot;font-size: 16px;&quot;&gt;,&lt;/span&gt;&lt;/font&gt;&lt;/div&gt;&lt;div&gt;&lt;font style=&quot;background-color: transparent;&quot; face=&quot;Courier New&quot;&gt;&lt;font color=&quot;rgba(0, 0, 0, 0)&quot;&gt;&lt;span style=&quot;font-size: 16px;&quot;&gt;&quot;&lt;/span&gt;&lt;/font&gt;&lt;span style=&quot;font-size: 16px;&quot;&gt;&lt;b&gt;fct_dateofbirth_dt&lt;/b&gt;&lt;/span&gt;&lt;font color=&quot;rgba(0, 0, 0, 0)&quot;&gt;&lt;span style=&quot;font-size: 16px;&quot;&gt;&quot;:&amp;nbsp;&lt;/span&gt;&lt;/font&gt;&lt;/font&gt;&lt;span style=&quot;background-color: transparent; color: light-dark(rgb(0, 0, 0), rgb(255, 255, 255)); font-family: &amp;quot;Courier New&amp;quot;; font-size: 16px;&quot;&gt;SOLR_DATE&lt;/span&gt;&lt;font style=&quot;background-color: transparent; color: light-dark(rgb(0, 0, 0), rgb(255, 255, 255));&quot; face=&quot;Courier New&quot;&gt;&lt;span style=&quot;font-size: 16px;&quot;&gt;,&lt;/span&gt;&lt;/font&gt;&lt;/div&gt;&lt;div&gt;&lt;font face=&quot;Courier New&quot;&gt;&lt;span style=&quot;font-size: 16px;&quot;&gt;&quot;&lt;b&gt;fct_contacttime_dts&lt;/b&gt;&quot;:&amp;nbsp;&lt;/span&gt;&lt;/font&gt;&lt;span style=&quot;font-family: &amp;quot;Courier New&amp;quot;; font-size: 16px;&quot;&gt;SOLR_DATE[]&lt;/span&gt;&lt;font face=&quot;Courier New&quot;&gt;&lt;span style=&quot;font-size: 16px;&quot;&gt;,&lt;/span&gt;&lt;/font&gt;&lt;/div&gt;&lt;div&gt;&lt;font face=&quot;Courier New&quot;&gt;&lt;span style=&quot;font-size: 16px;&quot;&gt;...&lt;/span&gt;&lt;/font&gt;&lt;/div&gt;&lt;div&gt;&lt;br&gt;&lt;/div&gt;" style="text;html=1;align=left;verticalAlign=top;whiteSpace=wrap;rounded=0;" parent="InCAAJHptk3qP1Fnhfb9-3" vertex="1">
          <mxGeometry x="3" y="5" width="344" height="205" as="geometry" />
        </mxCell>
        <mxCell id="InCAAJHptk3qP1Fnhfb9-4" value="" style="endArrow=block;html=1;rounded=0;strokeWidth=3;endFill=1;exitX=0;exitY=0.5;exitDx=0;exitDy=0;exitPerimeter=0;" parent="1" source="eZLfU4P8S1gQVFyg6nLj-1" edge="1">
          <mxGeometry width="50" height="50" relative="1" as="geometry">
            <mxPoint x="770" y="466" as="sourcePoint" />
            <mxPoint x="424" y="465" as="targetPoint" />
          </mxGeometry>
        </mxCell>
        <mxCell id="Vf_oIi1mKLmjIFpXdNbV-2" style="rounded=0;orthogonalLoop=1;jettySize=auto;html=1;endArrow=none;startFill=0;dashed=1;dashPattern=8 8;" parent="1" source="Vf_oIi1mKLmjIFpXdNbV-1" target="7FACqpUethFOk5VPM3G4-2" edge="1">
          <mxGeometry relative="1" as="geometry" />
        </mxCell>
        <mxCell id="Vf_oIi1mKLmjIFpXdNbV-1" value="&lt;div&gt;&lt;span style=&quot;font-size: 10px;&quot;&gt;- ID is the record-identifier in the base&lt;/span&gt;&lt;span style=&quot;font-size: 10px; background-color: initial;&quot;&gt;&amp;nbsp;audience&lt;/span&gt;&lt;/div&gt;&lt;span style=&quot;font-size: 10px;&quot;&gt;- Main document contains all IDs of the base&amp;nbsp;&lt;/span&gt;&lt;span style=&quot;font-size: 10px; background-color: initial;&quot;&gt;audience&lt;/span&gt;" style="shape=note;whiteSpace=wrap;html=1;backgroundOutline=1;darkOpacity=0.05;size=13;labelBackgroundColor=none;fillColor=#FFFFCC;gradientColor=none;align=left;verticalAlign=middle;" parent="1" vertex="1">
          <mxGeometry x="59" y="560" width="261" height="50" as="geometry" />
        </mxCell>
        <mxCell id="Rn9HJrGUbYZxdx9drKrm-1" value="&lt;div&gt;&lt;span style=&quot;font-size: 10px;&quot;&gt;- main_id is the identifier of the individual (record) in the base audience&lt;/span&gt;&lt;/div&gt;&lt;div&gt;&lt;span style=&quot;font-size: 10px;&quot;&gt;- The column &lt;b&gt;tenant scope&lt;/b&gt;s the data.&lt;/span&gt;&lt;/div&gt;" style="shape=note;whiteSpace=wrap;html=1;backgroundOutline=1;darkOpacity=0.05;size=13;labelBackgroundColor=none;fillColor=#FFFFCC;gradientColor=none;align=left;verticalAlign=middle;" parent="1" vertex="1">
          <mxGeometry x="350" y="560" width="340" height="40.5" as="geometry" />
        </mxCell>
        <mxCell id="Rn9HJrGUbYZxdx9drKrm-2" style="rounded=0;orthogonalLoop=1;jettySize=auto;html=1;endArrow=none;startFill=0;dashed=1;dashPattern=8 8;exitX=0.5;exitY=0;exitDx=0;exitDy=0;exitPerimeter=0;" parent="1" source="Rn9HJrGUbYZxdx9drKrm-1" edge="1">
          <mxGeometry relative="1" as="geometry">
            <mxPoint x="310" y="595" as="sourcePoint" />
            <mxPoint x="710" y="500" as="targetPoint" />
          </mxGeometry>
        </mxCell>
        <mxCell id="sBV0ux39u1sDvRkyyVbn-1" value="&lt;div&gt;&lt;span style=&quot;font-size: 10px;&quot;&gt;- Document with purchase events&lt;/span&gt;&lt;/div&gt;&lt;div&gt;&lt;span style=&quot;font-size: 10px;&quot;&gt;- main_id is the identifier in the base&lt;/span&gt;&lt;span style=&quot;font-size: 10px; background-color: transparent; color: light-dark(rgb(0, 0, 0), rgb(255, 255, 255));&quot;&gt;&amp;nbsp;audience&lt;/span&gt;&lt;/div&gt;&lt;div&gt;&lt;span style=&quot;background-color: initial; font-size: 10px;&quot;&gt;- fields in this document&lt;/span&gt;&lt;span style=&quot;background-color: initial; color: light-dark(rgb(0, 0, 0), rgb(255, 255, 255)); font-size: 10px;&quot;&gt;&amp;nbsp;are&lt;/span&gt;&lt;span style=&quot;background-color: initial; color: light-dark(rgb(0, 0, 0), rgb(255, 255, 255)); font-size: 10px;&quot;&gt;&amp;nbsp;&lt;/span&gt;&lt;b style=&quot;background-color: initial; color: light-dark(rgb(0, 0, 0), rgb(255, 255, 255)); font-size: 10px;&quot;&gt;related&lt;/b&gt;&lt;span style=&quot;background-color: initial; color: light-dark(rgb(0, 0, 0), rgb(255, 255, 255)); font-size: 10px;&quot;&gt;.&lt;/span&gt;&lt;/div&gt;" style="shape=note;whiteSpace=wrap;html=1;backgroundOutline=1;darkOpacity=0.05;size=13;labelBackgroundColor=none;fillColor=#FFFFCC;gradientColor=none;align=left;verticalAlign=middle;" parent="1" vertex="1">
          <mxGeometry x="500" y="90" width="220" height="50" as="geometry" />
        </mxCell>
        <mxCell id="sBV0ux39u1sDvRkyyVbn-2" style="rounded=0;orthogonalLoop=1;jettySize=auto;html=1;endArrow=none;startFill=0;dashed=1;dashPattern=8 8;exitX=0;exitY=0;exitDx=220;exitDy=31.5;exitPerimeter=0;entryX=-0.007;entryY=0.28;entryDx=0;entryDy=0;entryPerimeter=0;" parent="1" source="sBV0ux39u1sDvRkyyVbn-1" target="J_xiPTteWR3OBKMqK_Wt-1" edge="1">
          <mxGeometry relative="1" as="geometry">
            <mxPoint x="680" y="570" as="sourcePoint" />
            <mxPoint x="750" y="150" as="targetPoint" />
          </mxGeometry>
        </mxCell>
        <mxCell id="GdToK5e3EPzfeksUjeKf-1" value="&lt;div&gt;&lt;span style=&quot;font-size: 10px;&quot;&gt;nested, &lt;span style=&quot;font-weight: normal;&quot;&gt;one&amp;nbsp;&lt;/span&gt;&lt;/span&gt;&lt;/div&gt;&lt;div&gt;&lt;span style=&quot;font-weight: normal;&quot;&gt;&lt;span style=&quot;font-size: 10px;&quot;&gt;per&amp;nbsp;&lt;/span&gt;&lt;span style=&quot;font-size: 10px; background-color: transparent; color: light-dark(rgb(0, 0, 0), rgb(255, 255, 255));&quot;&gt;fact&lt;/span&gt;&lt;/span&gt;&lt;/div&gt;" style="shape=note;whiteSpace=wrap;html=1;backgroundOutline=1;darkOpacity=0.05;size=13;labelBackgroundColor=none;fillColor=#FFFFCC;gradientColor=none;align=left;verticalAlign=middle;fontStyle=1" parent="1" vertex="1">
          <mxGeometry x="300" y="120" width="81" height="40" as="geometry" />
        </mxCell>
        <mxCell id="GdToK5e3EPzfeksUjeKf-2" style="rounded=0;orthogonalLoop=1;jettySize=auto;html=1;endArrow=none;startFill=0;dashed=1;dashPattern=8 8;exitX=0;exitY=0;exitDx=81;exitDy=26.5;exitPerimeter=0;entryX=0.286;entryY=0.004;entryDx=0;entryDy=0;entryPerimeter=0;" parent="1" source="GdToK5e3EPzfeksUjeKf-1" target="7FACqpUethFOk5VPM3G4-3" edge="1">
          <mxGeometry relative="1" as="geometry">
            <mxPoint x="740" y="140" as="sourcePoint" />
            <mxPoint x="776" y="168" as="targetPoint" />
          </mxGeometry>
        </mxCell>
        <mxCell id="GdToK5e3EPzfeksUjeKf-4" value="*" style="text;html=1;align=center;verticalAlign=middle;whiteSpace=wrap;rounded=0;fontSize=18;" parent="1" vertex="1">
          <mxGeometry x="280" y="260" width="60" height="30" as="geometry" />
        </mxCell>
        <mxCell id="GdToK5e3EPzfeksUjeKf-5" value="0..1" style="text;html=1;align=center;verticalAlign=middle;whiteSpace=wrap;rounded=0;fontSize=18;" parent="1" vertex="1">
          <mxGeometry x="655" y="430" width="60" height="30" as="geometry" />
        </mxCell>
      </root>
    </mxGraphModel>
  </diagram>
  <diagram id="A3LBvk-S8tQZjbtqUzEp" name="profile-only">
    <mxGraphModel dx="1540" dy="1089" grid="1" gridSize="10" guides="1" tooltips="1" connect="1" arrows="1" fold="1" page="1" pageScale="1" pageWidth="1169" pageHeight="827" math="0" shadow="0">
      <root>
        <mxCell id="0" />
        <mxCell id="1" parent="0" />
        <mxCell id="HUYJwHTOo0x257fK5hYt-1" value="" style="shape=note;whiteSpace=wrap;html=1;backgroundOutline=1;darkOpacity=0.05;strokeWidth=2;align=left;labelPosition=center;verticalLabelPosition=middle;verticalAlign=middle;fillColor=#f8cecc;strokeColor=#b85450;" vertex="1" parent="1">
          <mxGeometry x="50" y="40" width="370" height="400" as="geometry" />
        </mxCell>
        <mxCell id="HUYJwHTOo0x257fK5hYt-2" value="&lt;div&gt;&lt;font face=&quot;Courier New&quot;&gt;&lt;span style=&quot;font-size: 16px;&quot;&gt;&quot;&lt;b&gt;id&lt;/b&gt;&quot;: SOLR_STRING,&lt;/span&gt;&lt;/font&gt;&lt;/div&gt;&lt;div&gt;&lt;font face=&quot;Courier New&quot;&gt;&lt;span style=&quot;font-size: 16px;&quot;&gt;&quot;&lt;b&gt;node_type&lt;/b&gt;&quot;:&amp;nbsp;&lt;/span&gt;&lt;/font&gt;&lt;span style=&quot;font-family: &amp;quot;Courier New&amp;quot;; font-size: 16px;&quot;&gt;&quot;&lt;b&gt;profile&lt;/b&gt;&quot;&lt;/span&gt;&lt;font face=&quot;Courier New&quot;&gt;&lt;span style=&quot;font-size: 16px;&quot;&gt;,&lt;/span&gt;&lt;/font&gt;&lt;/div&gt;&lt;div&gt;&lt;font face=&quot;Courier New&quot;&gt;&lt;span style=&quot;font-size: 16px;&quot;&gt;&quot;&lt;b&gt;provider&lt;/b&gt;&quot;:&amp;nbsp;&lt;/span&gt;&lt;/font&gt;&lt;span style=&quot;font-family: &amp;quot;Courier New&amp;quot;; font-size: 16px;&quot;&gt;SOLR_STRING&lt;/span&gt;&lt;font face=&quot;Courier New&quot;&gt;&lt;span style=&quot;font-size: 16px;&quot;&gt;,&lt;/span&gt;&lt;/font&gt;&lt;/div&gt;&lt;div&gt;&lt;font face=&quot;Courier New&quot;&gt;&lt;span style=&quot;font-size: 16px;&quot;&gt;&quot;&lt;b&gt;country&lt;/b&gt;&quot;:&amp;nbsp;&lt;/span&gt;&lt;/font&gt;&lt;span style=&quot;font-family: &amp;quot;Courier New&amp;quot;; font-size: 16px;&quot;&gt;SOLR_STRING&lt;/span&gt;&lt;font face=&quot;Courier New&quot;&gt;&lt;span style=&quot;font-size: 16px;&quot;&gt;,&lt;/span&gt;&lt;/font&gt;&lt;/div&gt;&lt;div&gt;&lt;font face=&quot;Courier New&quot;&gt;&lt;span style=&quot;font-size: 16px;&quot;&gt;&quot;&lt;b&gt;demcode&lt;/b&gt;&quot;: SOLR_INT,&lt;/span&gt;&lt;/font&gt;&lt;/div&gt;&lt;div&gt;&lt;font face=&quot;Courier New&quot;&gt;&lt;span style=&quot;font-size: 16px;&quot;&gt;&quot;&lt;b&gt;gender&lt;/b&gt;&quot;:&amp;nbsp;&lt;/span&gt;&lt;/font&gt;&lt;span style=&quot;font-family: &amp;quot;Courier New&amp;quot;; font-size: 16px;&quot;&gt;SOLR_STRING&lt;/span&gt;&lt;font face=&quot;Courier New&quot;&gt;&lt;span style=&quot;font-size: 16px;&quot;&gt;,&lt;/span&gt;&lt;/font&gt;&lt;/div&gt;&lt;div&gt;&lt;font face=&quot;Courier New&quot;&gt;&lt;span style=&quot;font-size: 16px;&quot;&gt;&quot;&lt;b&gt;omscore&lt;/b&gt;&quot;: SOLR_FLOAT,&lt;/span&gt;&lt;/font&gt;&lt;/div&gt;&lt;div&gt;&lt;font face=&quot;Courier New&quot;&gt;&lt;span style=&quot;font-size: 16px;&quot;&gt;&quot;&lt;b&gt;updtime&lt;/b&gt;&quot;:&amp;nbsp;&lt;/span&gt;&lt;/font&gt;&lt;span style=&quot;font-family: &amp;quot;Courier New&amp;quot;; font-size: 16px;&quot;&gt;SOLR_DATE&lt;/span&gt;&lt;font face=&quot;Courier New&quot;&gt;&lt;span style=&quot;font-size: 16px;&quot;&gt;,&lt;/span&gt;&lt;/font&gt;&lt;/div&gt;&lt;div&gt;&lt;font face=&quot;Courier New&quot;&gt;&lt;span style=&quot;font-size: 16px;&quot;&gt;&quot;&lt;b&gt;upddate&lt;/b&gt;&quot;:&amp;nbsp;&lt;/span&gt;&lt;/font&gt;&lt;span style=&quot;font-family: &amp;quot;Courier New&amp;quot;; font-size: 16px;&quot;&gt;SOLR_DATE&lt;/span&gt;&lt;font face=&quot;Courier New&quot;&gt;&lt;span style=&quot;font-size: 16px;&quot;&gt;,&lt;/span&gt;&lt;/font&gt;&lt;/div&gt;&lt;div&gt;&lt;font face=&quot;Courier New&quot;&gt;&lt;span style=&quot;font-size: 16px;&quot;&gt;&quot;&lt;b&gt;tntcode&lt;/b&gt;&quot;: SOLR_INT,&lt;/span&gt;&lt;/font&gt;&lt;/div&gt;&lt;div&gt;&lt;font face=&quot;Courier New&quot;&gt;&lt;span style=&quot;font-size: 16px;&quot;&gt;&quot;&lt;b&gt;bstate&lt;/b&gt;&quot;: SOLR_BOOLEAN,&lt;/span&gt;&lt;/font&gt;&lt;/div&gt;&lt;div&gt;&lt;font face=&quot;Courier New&quot;&gt;&lt;span style=&quot;font-size: 16px;&quot;&gt;&quot;&lt;b&gt;scode&lt;/b&gt;&quot;: SOLR_INT,&lt;/span&gt;&lt;/font&gt;&lt;/div&gt;&lt;div&gt;&lt;font face=&quot;Courier New&quot;&gt;&lt;span style=&quot;font-size: 16px;&quot;&gt;&quot;&lt;b&gt;ncode&lt;/b&gt;&quot;: SOLR_DOUBLE,&lt;/span&gt;&lt;/font&gt;&lt;/div&gt;&lt;div&gt;&lt;font face=&quot;Courier New&quot;&gt;&lt;span style=&quot;font-size: 16px;&quot;&gt;&quot;&lt;b&gt;bicode&lt;/b&gt;&quot;: SOLR_LONG,&lt;/span&gt;&lt;/font&gt;&lt;/div&gt;&lt;div&gt;&lt;span style=&quot;font-family: &amp;quot;Courier New&amp;quot;; background-color: transparent; color: light-dark(rgb(0, 0, 0), rgb(255, 255, 255)); font-size: 16px;&quot;&gt;&quot;&lt;b&gt;flt_sports_ss&lt;/b&gt;&quot;:&amp;nbsp;&lt;/span&gt;&lt;span style=&quot;font-family: &amp;quot;Courier New&amp;quot;; background-color: transparent; color: light-dark(rgb(0, 0, 0), rgb(255, 255, 255)); font-size: 16px;&quot;&gt;SOLR_STRING&lt;/span&gt;&lt;span style=&quot;font-family: &amp;quot;Courier New&amp;quot;; background-color: transparent; color: light-dark(rgb(0, 0, 0), rgb(255, 255, 255)); font-size: 16px;&quot;&gt;[&lt;/span&gt;&lt;span style=&quot;font-family: &amp;quot;Courier New&amp;quot;; background-color: transparent; color: light-dark(rgb(0, 0, 0), rgb(255, 255, 255)); font-size: 16px;&quot;&gt;],&lt;/span&gt;&lt;/div&gt;&lt;div&gt;&lt;font face=&quot;Courier New&quot;&gt;&lt;span style=&quot;font-size: 16px;&quot;&gt;&quot;&lt;b&gt;flt_hobbies_ss&lt;/b&gt;&quot;:&amp;nbsp;&lt;/span&gt;&lt;span style=&quot;font-size: 16px; background-color: transparent; color: light-dark(rgb(0, 0, 0), rgb(255, 255, 255));&quot;&gt;SOLR_STRING&lt;/span&gt;&lt;span style=&quot;font-size: 16px; background-color: transparent; color: light-dark(rgb(0, 0, 0), rgb(255, 255, 255));&quot;&gt;[&lt;/span&gt;&lt;span style=&quot;background-color: transparent; color: light-dark(rgb(0, 0, 0), rgb(255, 255, 255)); font-size: 16px;&quot;&gt;],&lt;/span&gt;&lt;/font&gt;&lt;font face=&quot;Courier New&quot;&gt;&lt;/font&gt;&lt;font face=&quot;Courier New&quot;&gt;&lt;div style=&quot;&quot;&gt;&lt;span style=&quot;font-size: 16px;&quot;&gt;&quot;&lt;b&gt;flt_sizecm_i&lt;/b&gt;&quot;: SOLR_INT,&lt;/span&gt;&lt;/div&gt;&lt;div style=&quot;&quot;&gt;&lt;span style=&quot;font-size: 16px;&quot;&gt;&quot;&lt;b&gt;flt_bodytempcelsius_d&lt;/b&gt;&quot;: SOLR_DOUBLE,&lt;/span&gt;&lt;/div&gt;&lt;div style=&quot;&quot;&gt;&lt;span style=&quot;font-size: 16px;&quot;&gt;&quot;&lt;b&gt;flt_anniversarydate_dt&lt;/b&gt;&quot;: SOLR_DATE,&lt;/span&gt;&lt;/div&gt;&lt;div style=&quot;&quot;&gt;&lt;span style=&quot;font-size: 16px;&quot;&gt;&quot;&lt;b&gt;flt_clubmember_b&lt;/b&gt;&quot;: SOLR_BOOLEAN&lt;/span&gt;&lt;/div&gt;&lt;div style=&quot;font-size: 16px;&quot;&gt;&lt;br&gt;&lt;/div&gt;&lt;/font&gt;&lt;/div&gt;&lt;div&gt;&lt;br&gt;&lt;/div&gt;" style="text;html=1;align=left;verticalAlign=top;whiteSpace=wrap;rounded=0;" vertex="1" parent="1">
          <mxGeometry x="56" y="45" width="364" height="395" as="geometry" />
        </mxCell>
      </root>
    </mxGraphModel>
  </diagram>
  <diagram id="CEfJkUwFFO5YkWEMBatr" name="profile-with-facts">
    <mxGraphModel dx="1540" dy="1089" grid="1" gridSize="10" guides="1" tooltips="1" connect="1" arrows="1" fold="1" page="1" pageScale="1" pageWidth="1169" pageHeight="827" math="0" shadow="0">
      <root>
        <mxCell id="0" />
        <mxCell id="1" parent="0" />
        <mxCell id="e2a3v9kpslHhSDwkPuTp-1" value="" style="shape=note;whiteSpace=wrap;html=1;backgroundOutline=1;darkOpacity=0.05;strokeWidth=2;align=left;labelPosition=center;verticalLabelPosition=middle;verticalAlign=middle;fillColor=#f8cecc;strokeColor=#b85450;" vertex="1" parent="1">
          <mxGeometry x="100" y="40" width="370" height="430" as="geometry" />
        </mxCell>
        <mxCell id="e2a3v9kpslHhSDwkPuTp-2" value="&lt;div&gt;&lt;font face=&quot;Courier New&quot;&gt;&lt;span style=&quot;font-size: 16px;&quot;&gt;&quot;&lt;b&gt;id&lt;/b&gt;&quot;: SOLR_STRING,&lt;/span&gt;&lt;/font&gt;&lt;/div&gt;&lt;div&gt;&lt;font face=&quot;Courier New&quot;&gt;&lt;span style=&quot;font-size: 16px;&quot;&gt;&quot;&lt;b&gt;node_type&lt;/b&gt;&quot;:&amp;nbsp;&lt;/span&gt;&lt;/font&gt;&lt;span style=&quot;font-family: &amp;quot;Courier New&amp;quot;; font-size: 16px;&quot;&gt;&quot;&lt;b&gt;profile&lt;/b&gt;&quot;&lt;/span&gt;&lt;font face=&quot;Courier New&quot;&gt;&lt;span style=&quot;font-size: 16px;&quot;&gt;,&lt;/span&gt;&lt;/font&gt;&lt;/div&gt;&lt;div&gt;&lt;font face=&quot;Courier New&quot;&gt;&lt;span style=&quot;font-size: 16px;&quot;&gt;&quot;&lt;b&gt;provider&lt;/b&gt;&quot;:&amp;nbsp;&lt;/span&gt;&lt;/font&gt;&lt;span style=&quot;font-family: &amp;quot;Courier New&amp;quot;; font-size: 16px;&quot;&gt;SOLR_STRING&lt;/span&gt;&lt;font face=&quot;Courier New&quot;&gt;&lt;span style=&quot;font-size: 16px;&quot;&gt;,&lt;/span&gt;&lt;/font&gt;&lt;/div&gt;&lt;div&gt;&lt;font face=&quot;Courier New&quot;&gt;&lt;span style=&quot;font-size: 16px;&quot;&gt;&quot;&lt;b&gt;country&lt;/b&gt;&quot;:&amp;nbsp;&lt;/span&gt;&lt;/font&gt;&lt;span style=&quot;font-family: &amp;quot;Courier New&amp;quot;; font-size: 16px;&quot;&gt;SOLR_STRING&lt;/span&gt;&lt;font face=&quot;Courier New&quot;&gt;&lt;span style=&quot;font-size: 16px;&quot;&gt;,&lt;/span&gt;&lt;/font&gt;&lt;/div&gt;&lt;div&gt;&lt;font face=&quot;Courier New&quot;&gt;&lt;span style=&quot;font-size: 16px;&quot;&gt;&quot;&lt;b&gt;demcode&lt;/b&gt;&quot;: SOLR_INT,&lt;/span&gt;&lt;/font&gt;&lt;/div&gt;&lt;div&gt;&lt;font face=&quot;Courier New&quot;&gt;&lt;span style=&quot;font-size: 16px;&quot;&gt;&quot;&lt;b&gt;gender&lt;/b&gt;&quot;:&amp;nbsp;&lt;/span&gt;&lt;/font&gt;&lt;span style=&quot;font-family: &amp;quot;Courier New&amp;quot;; font-size: 16px;&quot;&gt;SOLR_STRING&lt;/span&gt;&lt;font face=&quot;Courier New&quot;&gt;&lt;span style=&quot;font-size: 16px;&quot;&gt;,&lt;/span&gt;&lt;/font&gt;&lt;/div&gt;&lt;div&gt;&lt;font face=&quot;Courier New&quot;&gt;&lt;span style=&quot;font-size: 16px;&quot;&gt;&quot;&lt;b&gt;omscore&lt;/b&gt;&quot;: SOLR_FLOAT,&lt;/span&gt;&lt;/font&gt;&lt;/div&gt;&lt;div&gt;&lt;font face=&quot;Courier New&quot;&gt;&lt;span style=&quot;font-size: 16px;&quot;&gt;&quot;&lt;b&gt;updtime&lt;/b&gt;&quot;:&amp;nbsp;&lt;/span&gt;&lt;/font&gt;&lt;span style=&quot;font-family: &amp;quot;Courier New&amp;quot;; font-size: 16px;&quot;&gt;SOLR_DATE&lt;/span&gt;&lt;font face=&quot;Courier New&quot;&gt;&lt;span style=&quot;font-size: 16px;&quot;&gt;,&lt;/span&gt;&lt;/font&gt;&lt;/div&gt;&lt;div&gt;&lt;font face=&quot;Courier New&quot;&gt;&lt;span style=&quot;font-size: 16px;&quot;&gt;&quot;&lt;b&gt;upddate&lt;/b&gt;&quot;:&amp;nbsp;&lt;/span&gt;&lt;/font&gt;&lt;span style=&quot;font-family: &amp;quot;Courier New&amp;quot;; font-size: 16px;&quot;&gt;SOLR_DATE&lt;/span&gt;&lt;font face=&quot;Courier New&quot;&gt;&lt;span style=&quot;font-size: 16px;&quot;&gt;,&lt;/span&gt;&lt;/font&gt;&lt;/div&gt;&lt;div&gt;&lt;font face=&quot;Courier New&quot;&gt;&lt;span style=&quot;font-size: 16px;&quot;&gt;&quot;&lt;b&gt;tntcode&lt;/b&gt;&quot;: SOLR_INT,&lt;/span&gt;&lt;/font&gt;&lt;/div&gt;&lt;div&gt;&lt;font face=&quot;Courier New&quot;&gt;&lt;span style=&quot;font-size: 16px;&quot;&gt;&quot;&lt;b&gt;bstate&lt;/b&gt;&quot;: SOLR_BOOLEAN,&lt;/span&gt;&lt;/font&gt;&lt;/div&gt;&lt;div&gt;&lt;font face=&quot;Courier New&quot;&gt;&lt;span style=&quot;font-size: 16px;&quot;&gt;&quot;&lt;b&gt;scode&lt;/b&gt;&quot;: SOLR_INT,&lt;/span&gt;&lt;/font&gt;&lt;/div&gt;&lt;div&gt;&lt;font face=&quot;Courier New&quot;&gt;&lt;span style=&quot;font-size: 16px;&quot;&gt;&quot;&lt;b&gt;ncode&lt;/b&gt;&quot;: SOLR_DOUBLE,&lt;/span&gt;&lt;/font&gt;&lt;/div&gt;&lt;div&gt;&lt;font face=&quot;Courier New&quot;&gt;&lt;span style=&quot;font-size: 16px;&quot;&gt;&quot;&lt;b&gt;bicode&lt;/b&gt;&quot;: SOLR_LONG,&lt;/span&gt;&lt;/font&gt;&lt;/div&gt;&lt;div&gt;&lt;font face=&quot;Courier New&quot;&gt;&lt;span style=&quot;font-size: 16px;&quot;&gt;&quot;&lt;b&gt;fact_data&lt;/b&gt;&quot;: [&amp;lt;&amp;lt;NESTED&amp;gt;&amp;gt;],&lt;/span&gt;&lt;/font&gt;&lt;/div&gt;&lt;div&gt;&lt;font face=&quot;Courier New&quot;&gt;&lt;div style=&quot;&quot;&gt;&lt;span style=&quot;font-size: 16px;&quot;&gt;&quot;&lt;b&gt;flt_sports_ss&lt;/b&gt;&quot;:&amp;nbsp;&lt;/span&gt;&lt;span style=&quot;font-size: 16px; background-color: transparent; color: light-dark(rgb(0, 0, 0), rgb(255, 255, 255));&quot;&gt;SOLR_STRING&lt;/span&gt;&lt;span style=&quot;font-size: 16px; background-color: transparent; color: light-dark(rgb(0, 0, 0), rgb(255, 255, 255));&quot;&gt;[&lt;/span&gt;&lt;span style=&quot;background-color: transparent; color: light-dark(rgb(0, 0, 0), rgb(255, 255, 255)); font-size: 16px;&quot;&gt;],&lt;/span&gt;&lt;/div&gt;&lt;/font&gt;&lt;font face=&quot;Courier New&quot;&gt;&lt;span style=&quot;font-size: 16px;&quot;&gt;&quot;&lt;b&gt;flt_hobbies_ss&lt;/b&gt;&quot;:&amp;nbsp;&lt;/span&gt;&lt;span style=&quot;font-size: 16px; background-color: transparent; color: light-dark(rgb(0, 0, 0), rgb(255, 255, 255));&quot;&gt;SOLR_STRING&lt;/span&gt;&lt;span style=&quot;font-size: 16px; background-color: transparent; color: light-dark(rgb(0, 0, 0), rgb(255, 255, 255));&quot;&gt;[&lt;/span&gt;&lt;span style=&quot;background-color: transparent; color: light-dark(rgb(0, 0, 0), rgb(255, 255, 255)); font-size: 16px;&quot;&gt;],&lt;/span&gt;&lt;/font&gt;&lt;font face=&quot;Courier New&quot;&gt;&lt;/font&gt;&lt;font face=&quot;Courier New&quot;&gt;&lt;div style=&quot;&quot;&gt;&lt;span style=&quot;font-size: 16px;&quot;&gt;&quot;&lt;b&gt;flt_sizecm_i&lt;/b&gt;&quot;: SOLR_INT,&lt;/span&gt;&lt;/div&gt;&lt;div style=&quot;&quot;&gt;&lt;span style=&quot;font-size: 16px;&quot;&gt;&quot;&lt;b&gt;flt_bodytempcelsius_d&lt;/b&gt;&quot;: SOLR_DOUBLE,&lt;/span&gt;&lt;/div&gt;&lt;div style=&quot;&quot;&gt;&lt;span style=&quot;font-size: 16px;&quot;&gt;&quot;&lt;b&gt;flt_anniversarydate_dt&lt;/b&gt;&quot;: SOLR_DATE,&lt;/span&gt;&lt;/div&gt;&lt;div style=&quot;&quot;&gt;&lt;span style=&quot;font-size: 16px;&quot;&gt;&quot;&lt;b&gt;flt_clubmember_b&lt;/b&gt;&quot;: SOLR_BOOLEAN&lt;/span&gt;&lt;/div&gt;&lt;div style=&quot;font-size: 16px;&quot;&gt;&lt;br&gt;&lt;/div&gt;&lt;/font&gt;&lt;/div&gt;&lt;div&gt;&lt;br&gt;&lt;/div&gt;" style="text;html=1;align=left;verticalAlign=top;whiteSpace=wrap;rounded=0;" vertex="1" parent="1">
          <mxGeometry x="106" y="45" width="360" height="420" as="geometry" />
        </mxCell>
        <mxCell id="e2a3v9kpslHhSDwkPuTp-3" value="" style="endArrow=none;html=1;rounded=0;startArrow=diamondThin;startFill=1;strokeWidth=3;exitX=0.594;exitY=0.679;exitDx=0;exitDy=0;exitPerimeter=0;entryX=0;entryY=0.5;entryDx=0;entryDy=0;entryPerimeter=0;" edge="1" parent="1" source="e2a3v9kpslHhSDwkPuTp-2" target="e2a3v9kpslHhSDwkPuTp-5">
          <mxGeometry width="50" height="50" relative="1" as="geometry">
            <mxPoint x="593" y="609.9964285714286" as="sourcePoint" />
            <mxPoint x="637" y="634.55" as="targetPoint" />
          </mxGeometry>
        </mxCell>
        <mxCell id="e2a3v9kpslHhSDwkPuTp-4" value="" style="group" vertex="1" connectable="0" parent="1">
          <mxGeometry x="366" y="118" width="350" height="210" as="geometry" />
        </mxCell>
        <mxCell id="e2a3v9kpslHhSDwkPuTp-5" value="" style="shape=note;whiteSpace=wrap;html=1;backgroundOutline=1;darkOpacity=0.05;strokeWidth=2;align=left;labelPosition=center;verticalLabelPosition=middle;verticalAlign=middle;fillColor=#dae8fc;strokeColor=#6c8ebf;" vertex="1" parent="e2a3v9kpslHhSDwkPuTp-4">
          <mxGeometry width="350" height="210" as="geometry" />
        </mxCell>
        <mxCell id="e2a3v9kpslHhSDwkPuTp-6" value="&lt;div&gt;&lt;font face=&quot;Courier New&quot;&gt;&lt;span style=&quot;font-size: 16px;&quot;&gt;&quot;&lt;b&gt;id&lt;/b&gt;&quot;: SOLR_STRING(auto),&lt;/span&gt;&lt;/font&gt;&lt;/div&gt;&lt;div&gt;&lt;font face=&quot;Courier New&quot;&gt;&lt;span style=&quot;font-size: 16px;&quot;&gt;&quot;&lt;b&gt;node_type&lt;/b&gt;&quot;:&amp;nbsp;&lt;/span&gt;&lt;/font&gt;&lt;span style=&quot;font-family: &amp;quot;Courier New&amp;quot;; font-size: 16px;&quot;&gt;&quot;&lt;b&gt;fact&lt;/b&gt;&quot;&lt;/span&gt;&lt;font face=&quot;Courier New&quot;&gt;&lt;span style=&quot;font-size: 16px;&quot;&gt;,&lt;/span&gt;&lt;/font&gt;&lt;/div&gt;&lt;div&gt;&lt;font face=&quot;Courier New&quot;&gt;&lt;span style=&quot;font-size: 16px;&quot;&gt;&quot;&lt;b&gt;fct_provider_s&lt;/b&gt;&quot;:&amp;nbsp;&lt;/span&gt;&lt;/font&gt;&lt;span style=&quot;font-family: &amp;quot;Courier New&amp;quot;; font-size: 16px;&quot;&gt;SOLR_STRING&lt;/span&gt;&lt;font face=&quot;Courier New&quot;&gt;&lt;span style=&quot;font-size: 16px;&quot;&gt;,&lt;/span&gt;&lt;/font&gt;&lt;/div&gt;&lt;div&gt;&lt;font face=&quot;Courier New&quot;&gt;&lt;span style=&quot;font-size: 16px;&quot;&gt;&quot;&lt;b&gt;fct_has_pet_b&lt;/b&gt;&quot;:&amp;nbsp;&lt;/span&gt;&lt;/font&gt;&lt;span style=&quot;font-family: &amp;quot;Courier New&amp;quot;; font-size: 16px;&quot;&gt;SOLR_BOOLEAN&lt;/span&gt;&lt;font face=&quot;Courier New&quot;&gt;&lt;span style=&quot;font-size: 16px;&quot;&gt;,&lt;/span&gt;&lt;/font&gt;&lt;/div&gt;&lt;div&gt;&lt;font face=&quot;Courier New&quot;&gt;&lt;span style=&quot;font-size: 16px;&quot;&gt;&quot;&lt;b&gt;fct_has_dog_b&lt;/b&gt;&quot;:&amp;nbsp;&lt;/span&gt;&lt;/font&gt;&lt;span style=&quot;font-family: &amp;quot;Courier New&amp;quot;; font-size: 16px;&quot;&gt;SOLR_BOOLEAN&lt;/span&gt;&lt;font face=&quot;Courier New&quot;&gt;&lt;span style=&quot;font-size: 16px;&quot;&gt;,&lt;/span&gt;&lt;/font&gt;&lt;/div&gt;&lt;div&gt;&lt;font face=&quot;Courier New&quot;&gt;&lt;span style=&quot;font-size: 16px;&quot;&gt;&quot;&lt;b&gt;fct_has_cat_b&lt;/b&gt;&quot;:&amp;nbsp;&lt;/span&gt;&lt;/font&gt;&lt;span style=&quot;font-family: &amp;quot;Courier New&amp;quot;; font-size: 16px;&quot;&gt;SOLR_BOOLEAN&lt;/span&gt;&lt;font face=&quot;Courier New&quot;&gt;&lt;span style=&quot;font-size: 16px;&quot;&gt;,&lt;/span&gt;&lt;/font&gt;&lt;/div&gt;&lt;div&gt;&lt;font face=&quot;Courier New&quot;&gt;&lt;span style=&quot;font-size: 16px;&quot;&gt;&quot;&lt;b&gt;fct_as_bird&lt;/b&gt;&quot;:&amp;nbsp;&lt;/span&gt;&lt;/font&gt;&lt;span style=&quot;font-family: &amp;quot;Courier New&amp;quot;; font-size: 16px;&quot;&gt;SOLR_BOOLEAN&lt;/span&gt;&lt;font face=&quot;Courier New&quot;&gt;&lt;span style=&quot;font-size: 16px;&quot;&gt;,&lt;/span&gt;&lt;/font&gt;&lt;/div&gt;&lt;div&gt;&lt;font style=&quot;background-color: transparent;&quot; face=&quot;Courier New&quot;&gt;&lt;font color=&quot;rgba(0, 0, 0, 0)&quot;&gt;&lt;span style=&quot;font-size: 16px;&quot;&gt;&quot;&lt;/span&gt;&lt;/font&gt;&lt;span style=&quot;font-size: 16px;&quot;&gt;&lt;b&gt;fct_dateofbirth_dt&lt;/b&gt;&lt;/span&gt;&lt;font color=&quot;rgba(0, 0, 0, 0)&quot;&gt;&lt;span style=&quot;font-size: 16px;&quot;&gt;&quot;:&amp;nbsp;&lt;/span&gt;&lt;/font&gt;&lt;/font&gt;&lt;span style=&quot;background-color: transparent; color: light-dark(rgb(0, 0, 0), rgb(255, 255, 255)); font-family: &amp;quot;Courier New&amp;quot;; font-size: 16px;&quot;&gt;SOLR_DATE&lt;/span&gt;&lt;font style=&quot;background-color: transparent; color: light-dark(rgb(0, 0, 0), rgb(255, 255, 255));&quot; face=&quot;Courier New&quot;&gt;&lt;span style=&quot;font-size: 16px;&quot;&gt;,&lt;/span&gt;&lt;/font&gt;&lt;/div&gt;&lt;div&gt;&lt;font face=&quot;Courier New&quot;&gt;&lt;span style=&quot;font-size: 16px;&quot;&gt;&quot;&lt;b&gt;fct_contacttime_dts&lt;/b&gt;&quot;:&amp;nbsp;&lt;/span&gt;&lt;/font&gt;&lt;span style=&quot;font-family: &amp;quot;Courier New&amp;quot;; font-size: 16px;&quot;&gt;SOLR_DATE[]&lt;/span&gt;&lt;font face=&quot;Courier New&quot;&gt;&lt;span style=&quot;font-size: 16px;&quot;&gt;,&lt;/span&gt;&lt;/font&gt;&lt;/div&gt;&lt;div&gt;&lt;font face=&quot;Courier New&quot;&gt;&lt;span style=&quot;font-size: 16px;&quot;&gt;...&lt;/span&gt;&lt;/font&gt;&lt;/div&gt;&lt;div&gt;&lt;br&gt;&lt;/div&gt;" style="text;html=1;align=left;verticalAlign=top;whiteSpace=wrap;rounded=0;" vertex="1" parent="e2a3v9kpslHhSDwkPuTp-4">
          <mxGeometry x="3" y="5" width="344" height="205" as="geometry" />
        </mxCell>
        <mxCell id="e2a3v9kpslHhSDwkPuTp-7" value="&lt;div&gt;&lt;span style=&quot;font-size: 10px;&quot;&gt;nested, &lt;span style=&quot;font-weight: normal;&quot;&gt;one&amp;nbsp;&lt;/span&gt;&lt;/span&gt;&lt;/div&gt;&lt;div&gt;&lt;span style=&quot;font-weight: normal;&quot;&gt;&lt;span style=&quot;font-size: 10px;&quot;&gt;per&amp;nbsp;&lt;/span&gt;&lt;span style=&quot;font-size: 10px; background-color: transparent; color: light-dark(rgb(0, 0, 0), rgb(255, 255, 255));&quot;&gt;fact&lt;/span&gt;&lt;/span&gt;&lt;/div&gt;" style="shape=note;whiteSpace=wrap;html=1;backgroundOutline=1;darkOpacity=0.05;size=13;labelBackgroundColor=none;fillColor=#FFFFCC;gradientColor=none;align=left;verticalAlign=middle;fontStyle=1" vertex="1" parent="1">
          <mxGeometry x="347" y="70" width="81" height="40" as="geometry" />
        </mxCell>
        <mxCell id="e2a3v9kpslHhSDwkPuTp-8" style="rounded=0;orthogonalLoop=1;jettySize=auto;html=1;endArrow=none;startFill=0;dashed=1;dashPattern=8 8;exitX=0;exitY=0;exitDx=81;exitDy=26.5;exitPerimeter=0;entryX=0.286;entryY=0.004;entryDx=0;entryDy=0;entryPerimeter=0;" edge="1" parent="1" source="e2a3v9kpslHhSDwkPuTp-7" target="e2a3v9kpslHhSDwkPuTp-5">
          <mxGeometry relative="1" as="geometry">
            <mxPoint x="787" y="90" as="sourcePoint" />
            <mxPoint x="823" y="118" as="targetPoint" />
          </mxGeometry>
        </mxCell>
        <mxCell id="e2a3v9kpslHhSDwkPuTp-9" value="*" style="text;html=1;align=center;verticalAlign=middle;whiteSpace=wrap;rounded=0;fontSize=18;" vertex="1" parent="1">
          <mxGeometry x="327" y="210" width="60" height="30" as="geometry" />
        </mxCell>
      </root>
    </mxGraphModel>
  </diagram>
  <diagram name="profile-with-pos" id="cTbJGThbHacMKODeSnuA">
    <mxGraphModel dx="1540" dy="1089" grid="1" gridSize="10" guides="1" tooltips="1" connect="1" arrows="1" fold="1" page="1" pageScale="1" pageWidth="1169" pageHeight="827" math="0" shadow="0">
      <root>
        <mxCell id="rBdTwN4pelnpVBtgk-Uy-0" />
        <mxCell id="rBdTwN4pelnpVBtgk-Uy-1" parent="rBdTwN4pelnpVBtgk-Uy-0" />
        <mxCell id="rBdTwN4pelnpVBtgk-Uy-2" value="" style="shape=note;whiteSpace=wrap;html=1;backgroundOutline=1;darkOpacity=0.05;strokeWidth=2;align=left;labelPosition=center;verticalLabelPosition=middle;verticalAlign=middle;fillColor=#f8cecc;strokeColor=#b85450;" vertex="1" parent="rBdTwN4pelnpVBtgk-Uy-1">
          <mxGeometry x="53" y="90" width="370" height="280" as="geometry" />
        </mxCell>
        <mxCell id="rBdTwN4pelnpVBtgk-Uy-3" value="&lt;div&gt;&lt;font face=&quot;Courier New&quot;&gt;&lt;span style=&quot;font-size: 16px;&quot;&gt;&quot;&lt;b&gt;id&lt;/b&gt;&quot;: SOLR_STRING,&lt;/span&gt;&lt;/font&gt;&lt;/div&gt;&lt;div&gt;&lt;font face=&quot;Courier New&quot;&gt;&lt;span style=&quot;font-size: 16px;&quot;&gt;&quot;&lt;b&gt;node_type&lt;/b&gt;&quot;:&amp;nbsp;&lt;/span&gt;&lt;/font&gt;&lt;span style=&quot;font-family: &amp;quot;Courier New&amp;quot;; font-size: 16px;&quot;&gt;&quot;&lt;b&gt;profile&lt;/b&gt;&quot;&lt;/span&gt;&lt;font face=&quot;Courier New&quot;&gt;&lt;span style=&quot;font-size: 16px;&quot;&gt;,&lt;/span&gt;&lt;/font&gt;&lt;/div&gt;&lt;div&gt;&lt;span style=&quot;font-size: 16px; font-family: &amp;quot;Courier New&amp;quot;; background-color: transparent; color: light-dark(rgb(0, 0, 0), rgb(255, 255, 255));&quot;&gt;...&lt;/span&gt;&lt;/div&gt;&lt;div&gt;&lt;br&gt;&lt;/div&gt;" style="text;html=1;align=left;verticalAlign=top;whiteSpace=wrap;rounded=0;" vertex="1" parent="rBdTwN4pelnpVBtgk-Uy-1">
          <mxGeometry x="59" y="95" width="360" height="95" as="geometry" />
        </mxCell>
        <mxCell id="rBdTwN4pelnpVBtgk-Uy-5" value="" style="endArrow=block;html=1;rounded=0;strokeWidth=3;endFill=1;entryX=0;entryY=0;entryDx=370;entryDy=120;entryPerimeter=0;" edge="1" parent="rBdTwN4pelnpVBtgk-Uy-1" target="rBdTwN4pelnpVBtgk-Uy-2">
          <mxGeometry width="50" height="50" relative="1" as="geometry">
            <mxPoint x="510" y="210" as="sourcePoint" />
            <mxPoint x="425" y="190" as="targetPoint" />
          </mxGeometry>
        </mxCell>
        <mxCell id="rBdTwN4pelnpVBtgk-Uy-9" value="" style="group" vertex="1" connectable="0" parent="rBdTwN4pelnpVBtgk-Uy-1">
          <mxGeometry x="503" y="160" width="327" height="210" as="geometry" />
        </mxCell>
        <mxCell id="rBdTwN4pelnpVBtgk-Uy-10" value="" style="shape=note;whiteSpace=wrap;html=1;backgroundOutline=1;darkOpacity=0.05;strokeWidth=2;align=left;labelPosition=center;verticalLabelPosition=middle;verticalAlign=middle;fillColor=#d5e8d4;strokeColor=#82b366;" vertex="1" parent="rBdTwN4pelnpVBtgk-Uy-9">
          <mxGeometry width="327" height="210" as="geometry" />
        </mxCell>
        <mxCell id="rBdTwN4pelnpVBtgk-Uy-11" value="&lt;div&gt;&lt;font face=&quot;Courier New&quot;&gt;&lt;span style=&quot;font-size: 16px;&quot;&gt;&quot;&lt;b&gt;id&lt;/b&gt;&quot;: SOLR_STRING,&lt;/span&gt;&lt;/font&gt;&lt;/div&gt;&lt;div&gt;&lt;font face=&quot;Courier New&quot;&gt;&lt;span style=&quot;font-size: 16px;&quot;&gt;&quot;&lt;b&gt;main_id&lt;/b&gt;&quot;:&amp;nbsp;&lt;/span&gt;&lt;/font&gt;&lt;span style=&quot;font-family: &amp;quot;Courier New&amp;quot;; font-size: 16px;&quot;&gt;SOLR_STRING&lt;/span&gt;&lt;font face=&quot;Courier New&quot;&gt;&lt;span style=&quot;font-size: 16px;&quot;&gt;,&lt;/span&gt;&lt;/font&gt;&lt;/div&gt;&lt;div&gt;&lt;font face=&quot;Courier New&quot;&gt;&lt;span style=&quot;font-size: 16px;&quot;&gt;&quot;&lt;b&gt;node_type&lt;/b&gt;&quot;:&amp;nbsp;&lt;/span&gt;&lt;/font&gt;&lt;span style=&quot;font-family: &amp;quot;Courier New&amp;quot;; font-size: 16px;&quot;&gt;&quot;&lt;b&gt;pos&lt;/b&gt;&quot;&lt;/span&gt;&lt;font face=&quot;Courier New&quot;&gt;&lt;span style=&quot;font-size: 16px;&quot;&gt;,&lt;/span&gt;&lt;/font&gt;&lt;/div&gt;&lt;div&gt;&lt;font face=&quot;Courier New&quot;&gt;&lt;span style=&quot;font-size: 16px;&quot;&gt;&quot;&lt;b&gt;pos_invno_i&lt;/b&gt;&quot;:&amp;nbsp;&lt;/span&gt;&lt;/font&gt;&lt;span style=&quot;font-family: &amp;quot;Courier New&amp;quot;; font-size: 16px;&quot;&gt;SOLR_INTEGER&lt;/span&gt;&lt;font face=&quot;Courier New&quot;&gt;&lt;span style=&quot;font-size: 16px;&quot;&gt;,&lt;/span&gt;&lt;/font&gt;&lt;/div&gt;&lt;div&gt;&lt;font face=&quot;Courier New&quot;&gt;&lt;span style=&quot;font-size: 16px;&quot;&gt;&quot;&lt;b&gt;pos_invdate_dt&lt;/b&gt;&quot;:&amp;nbsp;&lt;/span&gt;&lt;/font&gt;&lt;span style=&quot;font-family: &amp;quot;Courier New&amp;quot;; font-size: 16px;&quot;&gt;SOLR_DATE&lt;/span&gt;&lt;font face=&quot;Courier New&quot;&gt;&lt;span style=&quot;font-size: 16px;&quot;&gt;,&lt;/span&gt;&lt;/font&gt;&lt;/div&gt;&lt;div&gt;&lt;font face=&quot;Courier New&quot;&gt;&lt;span style=&quot;font-size: 16px;&quot;&gt;&quot;&lt;b&gt;pos_code_s&lt;/b&gt;&quot;:&amp;nbsp;&lt;/span&gt;&lt;/font&gt;&lt;span style=&quot;font-family: &amp;quot;Courier New&amp;quot;; font-size: 16px;&quot;&gt;SOLR_STRING&lt;/span&gt;&lt;font face=&quot;Courier New&quot;&gt;&lt;span style=&quot;font-size: 16px;&quot;&gt;,&lt;/span&gt;&lt;/font&gt;&lt;/div&gt;&lt;div&gt;&lt;font face=&quot;Courier New&quot;&gt;&lt;span style=&quot;font-size: 16px;&quot;&gt;&quot;&lt;b&gt;pos_description_s&lt;/b&gt;&quot;:&amp;nbsp;&lt;/span&gt;&lt;/font&gt;&lt;span style=&quot;font-family: &amp;quot;Courier New&amp;quot;; font-size: 16px;&quot;&gt;SOLR_STRING&lt;/span&gt;&lt;font face=&quot;Courier New&quot;&gt;&lt;span style=&quot;font-size: 16px;&quot;&gt;,&lt;/span&gt;&lt;/font&gt;&lt;/div&gt;&lt;div&gt;&lt;font face=&quot;Courier New&quot;&gt;&lt;span style=&quot;font-size: 16px;&quot;&gt;&quot;&lt;b&gt;pos_quantity_i&lt;/b&gt;&quot;:&amp;nbsp;&lt;/span&gt;&lt;/font&gt;&lt;span style=&quot;font-family: &amp;quot;Courier New&amp;quot;; font-size: 16px;&quot;&gt;SOLR_INTEGER&lt;/span&gt;&lt;font face=&quot;Courier New&quot;&gt;&lt;span style=&quot;font-size: 16px;&quot;&gt;,&lt;/span&gt;&lt;/font&gt;&lt;/div&gt;&lt;div&gt;&lt;font style=&quot;background-color: transparent;&quot; face=&quot;Courier New&quot;&gt;&lt;font color=&quot;rgba(0, 0, 0, 0)&quot;&gt;&lt;span style=&quot;font-size: 16px;&quot;&gt;&quot;&lt;/span&gt;&lt;/font&gt;&lt;font&gt;&lt;span style=&quot;font-size: 16px;&quot;&gt;&lt;b&gt;pos_uprice_d&lt;/b&gt;&lt;/span&gt;&lt;font color=&quot;rgba(0, 0, 0, 0)&quot;&gt;&lt;span style=&quot;font-size: 16px;&quot;&gt;&quot;:&amp;nbsp;&lt;/span&gt;&lt;/font&gt;&lt;/font&gt;&lt;/font&gt;&lt;span style=&quot;background-color: transparent; color: light-dark(rgb(0, 0, 0), rgb(255, 255, 255)); font-family: &amp;quot;Courier New&amp;quot;; font-size: 16px;&quot;&gt;SOLR_DOUBLE&lt;/span&gt;&lt;font style=&quot;background-color: transparent; color: light-dark(rgb(0, 0, 0), rgb(255, 255, 255));&quot; face=&quot;Courier New&quot;&gt;&lt;span style=&quot;font-size: 16px;&quot;&gt;,&lt;/span&gt;&lt;/font&gt;&lt;/div&gt;&lt;div&gt;&lt;font face=&quot;Courier New&quot;&gt;&lt;span style=&quot;font-size: 16px;&quot;&gt;&quot;&lt;b&gt;pos_country_s&lt;/b&gt;&quot;:&amp;nbsp;&lt;/span&gt;&lt;/font&gt;&lt;span style=&quot;font-family: &amp;quot;Courier New&amp;quot;; font-size: 16px;&quot;&gt;SOLR_STRING&lt;/span&gt;&lt;/div&gt;&lt;div&gt;&lt;br&gt;&lt;/div&gt;" style="text;html=1;align=left;verticalAlign=top;whiteSpace=wrap;rounded=0;" vertex="1" parent="rBdTwN4pelnpVBtgk-Uy-9">
          <mxGeometry x="3" y="5" width="324" height="205" as="geometry" />
        </mxCell>
        <mxCell id="rBdTwN4pelnpVBtgk-Uy-13" value="" style="group" vertex="1" connectable="0" parent="rBdTwN4pelnpVBtgk-Uy-1">
          <mxGeometry x="280" y="170" width="91" height="52" as="geometry" />
        </mxCell>
        <mxCell id="rBdTwN4pelnpVBtgk-Uy-14" value="&lt;font face=&quot;Courier New&quot; style=&quot;font-size: 13px;&quot;&gt;&lt;b&gt;fact&lt;/b&gt;&lt;/font&gt;" style="shape=note;whiteSpace=wrap;html=1;backgroundOutline=1;darkOpacity=0.05;strokeWidth=2;align=left;labelPosition=center;verticalLabelPosition=middle;verticalAlign=middle;fillColor=#dae8fc;strokeColor=#6c8ebf;size=15;" vertex="1" parent="rBdTwN4pelnpVBtgk-Uy-13">
          <mxGeometry x="32" y="100" width="56.17283950617284" height="32" as="geometry" />
        </mxCell>
        <mxCell id="rBdTwN4pelnpVBtgk-Uy-21" value="&lt;div&gt;&lt;span style=&quot;font-size: 10px;&quot;&gt;- Document with purchase events&lt;/span&gt;&lt;/div&gt;&lt;div&gt;&lt;span style=&quot;font-size: 10px;&quot;&gt;- main_id is the identifier in the base&lt;/span&gt;&lt;span style=&quot;font-size: 10px; background-color: transparent; color: light-dark(rgb(0, 0, 0), rgb(255, 255, 255));&quot;&gt;&amp;nbsp;audience&lt;/span&gt;&lt;/div&gt;&lt;div&gt;&lt;span style=&quot;background-color: initial; font-size: 10px;&quot;&gt;- fields in this document&lt;/span&gt;&lt;span style=&quot;background-color: initial; color: light-dark(rgb(0, 0, 0), rgb(255, 255, 255)); font-size: 10px;&quot;&gt;&amp;nbsp;are&lt;/span&gt;&lt;span style=&quot;background-color: initial; color: light-dark(rgb(0, 0, 0), rgb(255, 255, 255)); font-size: 10px;&quot;&gt;&amp;nbsp;&lt;/span&gt;&lt;b style=&quot;background-color: initial; color: light-dark(rgb(0, 0, 0), rgb(255, 255, 255)); font-size: 10px;&quot;&gt;related&lt;/b&gt;&lt;span style=&quot;background-color: initial; color: light-dark(rgb(0, 0, 0), rgb(255, 255, 255)); font-size: 10px;&quot;&gt;.&lt;/span&gt;&lt;/div&gt;" style="shape=note;whiteSpace=wrap;html=1;backgroundOutline=1;darkOpacity=0.05;size=13;labelBackgroundColor=none;fillColor=#FFFFCC;gradientColor=none;align=left;verticalAlign=middle;" vertex="1" parent="rBdTwN4pelnpVBtgk-Uy-1">
          <mxGeometry x="603" y="90" width="220" height="50" as="geometry" />
        </mxCell>
        <mxCell id="rBdTwN4pelnpVBtgk-Uy-22" style="rounded=0;orthogonalLoop=1;jettySize=auto;html=1;endArrow=none;startFill=0;dashed=1;dashPattern=8 8;exitX=0.5;exitY=1;exitDx=0;exitDy=0;exitPerimeter=0;entryX=0.5;entryY=0;entryDx=0;entryDy=0;entryPerimeter=0;" edge="1" parent="rBdTwN4pelnpVBtgk-Uy-1" source="rBdTwN4pelnpVBtgk-Uy-21" target="rBdTwN4pelnpVBtgk-Uy-10">
          <mxGeometry relative="1" as="geometry">
            <mxPoint x="673" y="570" as="sourcePoint" />
            <mxPoint x="913" y="220" as="targetPoint" />
          </mxGeometry>
        </mxCell>
        <mxCell id="rBdTwN4pelnpVBtgk-Uy-12" value="*" style="text;html=1;align=center;verticalAlign=middle;whiteSpace=wrap;rounded=0;fontSize=18;" vertex="1" parent="rBdTwN4pelnpVBtgk-Uy-1">
          <mxGeometry x="460" y="187" width="60" height="30" as="geometry" />
        </mxCell>
        <mxCell id="NnhdRf1CnFbKvUMlcC2B-0" value="" style="group" vertex="1" connectable="0" parent="rBdTwN4pelnpVBtgk-Uy-1">
          <mxGeometry x="322" y="270" width="91" height="52" as="geometry" />
        </mxCell>
        <mxCell id="NnhdRf1CnFbKvUMlcC2B-1" value="&lt;font face=&quot;Courier New&quot; style=&quot;font-size: 13px;&quot;&gt;&lt;b&gt;fact&lt;/b&gt;&lt;/font&gt;" style="shape=note;whiteSpace=wrap;html=1;backgroundOutline=1;darkOpacity=0.05;strokeWidth=2;align=left;labelPosition=center;verticalLabelPosition=middle;verticalAlign=middle;fillColor=#dae8fc;strokeColor=#6c8ebf;size=15;" vertex="1" parent="NnhdRf1CnFbKvUMlcC2B-0">
          <mxGeometry y="20" width="56.17283950617284" height="32" as="geometry" />
        </mxCell>
        <mxCell id="NnhdRf1CnFbKvUMlcC2B-2" value="" style="group" vertex="1" connectable="0" parent="rBdTwN4pelnpVBtgk-Uy-1">
          <mxGeometry x="332" y="289" width="91" height="52" as="geometry" />
        </mxCell>
        <mxCell id="NnhdRf1CnFbKvUMlcC2B-3" value="&lt;font face=&quot;Courier New&quot; style=&quot;font-size: 13px;&quot;&gt;&lt;b&gt;fact&lt;/b&gt;&lt;/font&gt;" style="shape=note;whiteSpace=wrap;html=1;backgroundOutline=1;darkOpacity=0.05;strokeWidth=2;align=left;labelPosition=center;verticalLabelPosition=middle;verticalAlign=middle;fillColor=#dae8fc;strokeColor=#6c8ebf;size=15;" vertex="1" parent="NnhdRf1CnFbKvUMlcC2B-2">
          <mxGeometry y="20" width="56.17283950617284" height="32" as="geometry" />
        </mxCell>
      </root>
    </mxGraphModel>
  </diagram>
  <diagram name="profile-with-survey" id="zQ_aE65hvLy_6MEaeR9F">
    <mxGraphModel dx="1540" dy="1089" grid="1" gridSize="10" guides="1" tooltips="1" connect="1" arrows="1" fold="1" page="1" pageScale="1" pageWidth="1169" pageHeight="827" math="0" shadow="0">
      <root>
        <mxCell id="18L6s5909YkoWLZlHoYE-0" />
        <mxCell id="18L6s5909YkoWLZlHoYE-1" parent="18L6s5909YkoWLZlHoYE-0" />
        <mxCell id="18L6s5909YkoWLZlHoYE-2" value="" style="shape=note;whiteSpace=wrap;html=1;backgroundOutline=1;darkOpacity=0.05;strokeWidth=2;align=left;labelPosition=center;verticalLabelPosition=middle;verticalAlign=middle;fillColor=#f8cecc;strokeColor=#b85450;" vertex="1" parent="18L6s5909YkoWLZlHoYE-1">
          <mxGeometry x="53" y="90" width="370" height="280" as="geometry" />
        </mxCell>
        <mxCell id="18L6s5909YkoWLZlHoYE-3" value="&lt;div&gt;&lt;font face=&quot;Courier New&quot;&gt;&lt;span style=&quot;font-size: 16px;&quot;&gt;&quot;&lt;b&gt;id&lt;/b&gt;&quot;: SOLR_STRING,&lt;/span&gt;&lt;/font&gt;&lt;/div&gt;&lt;div&gt;&lt;font face=&quot;Courier New&quot;&gt;&lt;span style=&quot;font-size: 16px;&quot;&gt;&quot;&lt;b&gt;node_type&lt;/b&gt;&quot;:&amp;nbsp;&lt;/span&gt;&lt;/font&gt;&lt;span style=&quot;font-family: &amp;quot;Courier New&amp;quot;; font-size: 16px;&quot;&gt;&quot;&lt;b&gt;profile&lt;/b&gt;&quot;&lt;/span&gt;&lt;font face=&quot;Courier New&quot;&gt;&lt;span style=&quot;font-size: 16px;&quot;&gt;,&lt;/span&gt;&lt;/font&gt;&lt;/div&gt;&lt;div&gt;&lt;span style=&quot;font-size: 16px; font-family: &amp;quot;Courier New&amp;quot;; background-color: transparent; color: light-dark(rgb(0, 0, 0), rgb(255, 255, 255));&quot;&gt;...&lt;/span&gt;&lt;/div&gt;&lt;div&gt;&lt;br&gt;&lt;/div&gt;" style="text;html=1;align=left;verticalAlign=top;whiteSpace=wrap;rounded=0;" vertex="1" parent="18L6s5909YkoWLZlHoYE-1">
          <mxGeometry x="59" y="95" width="360" height="95" as="geometry" />
        </mxCell>
        <mxCell id="18L6s5909YkoWLZlHoYE-4" value="" style="endArrow=block;html=1;rounded=0;strokeWidth=3;endFill=1;exitX=0;exitY=0.5;exitDx=0;exitDy=0;exitPerimeter=0;entryX=1;entryY=0.943;entryDx=0;entryDy=0;entryPerimeter=0;" edge="1" parent="18L6s5909YkoWLZlHoYE-1" source="18L6s5909YkoWLZlHoYE-6" target="18L6s5909YkoWLZlHoYE-2">
          <mxGeometry width="50" height="50" relative="1" as="geometry">
            <mxPoint x="510" y="210" as="sourcePoint" />
            <mxPoint x="423" y="330" as="targetPoint" />
          </mxGeometry>
        </mxCell>
        <mxCell id="18L6s5909YkoWLZlHoYE-8" value="" style="group" vertex="1" connectable="0" parent="18L6s5909YkoWLZlHoYE-1">
          <mxGeometry x="280" y="170" width="91" height="52" as="geometry" />
        </mxCell>
        <mxCell id="18L6s5909YkoWLZlHoYE-9" value="&lt;font face=&quot;Courier New&quot; style=&quot;font-size: 13px;&quot;&gt;&lt;b&gt;fact&lt;/b&gt;&lt;/font&gt;" style="shape=note;whiteSpace=wrap;html=1;backgroundOutline=1;darkOpacity=0.05;strokeWidth=2;align=left;labelPosition=center;verticalLabelPosition=middle;verticalAlign=middle;fillColor=#dae8fc;strokeColor=#6c8ebf;size=15;" vertex="1" parent="18L6s5909YkoWLZlHoYE-8">
          <mxGeometry x="32" y="100" width="56.17283950617284" height="32" as="geometry" />
        </mxCell>
        <mxCell id="18L6s5909YkoWLZlHoYE-12" value="*" style="text;html=1;align=center;verticalAlign=middle;whiteSpace=wrap;rounded=0;fontSize=18;" vertex="1" parent="18L6s5909YkoWLZlHoYE-1">
          <mxGeometry x="429" y="334" width="60" height="30" as="geometry" />
        </mxCell>
        <mxCell id="18L6s5909YkoWLZlHoYE-13" value="" style="group" vertex="1" connectable="0" parent="18L6s5909YkoWLZlHoYE-1">
          <mxGeometry x="322" y="270" width="91" height="52" as="geometry" />
        </mxCell>
        <mxCell id="18L6s5909YkoWLZlHoYE-14" value="&lt;font face=&quot;Courier New&quot; style=&quot;font-size: 13px;&quot;&gt;&lt;b&gt;fact&lt;/b&gt;&lt;/font&gt;" style="shape=note;whiteSpace=wrap;html=1;backgroundOutline=1;darkOpacity=0.05;strokeWidth=2;align=left;labelPosition=center;verticalLabelPosition=middle;verticalAlign=middle;fillColor=#dae8fc;strokeColor=#6c8ebf;size=15;" vertex="1" parent="18L6s5909YkoWLZlHoYE-13">
          <mxGeometry y="20" width="56.17283950617284" height="32" as="geometry" />
        </mxCell>
        <mxCell id="18L6s5909YkoWLZlHoYE-15" value="" style="group" vertex="1" connectable="0" parent="18L6s5909YkoWLZlHoYE-1">
          <mxGeometry x="332" y="289" width="91" height="52" as="geometry" />
        </mxCell>
        <mxCell id="18L6s5909YkoWLZlHoYE-16" value="&lt;font face=&quot;Courier New&quot; style=&quot;font-size: 13px;&quot;&gt;&lt;b&gt;fact&lt;/b&gt;&lt;/font&gt;" style="shape=note;whiteSpace=wrap;html=1;backgroundOutline=1;darkOpacity=0.05;strokeWidth=2;align=left;labelPosition=center;verticalLabelPosition=middle;verticalAlign=middle;fillColor=#dae8fc;strokeColor=#6c8ebf;size=15;" vertex="1" parent="18L6s5909YkoWLZlHoYE-15">
          <mxGeometry y="20" width="56.17283950617284" height="32" as="geometry" />
        </mxCell>
        <mxCell id="sObYYztATC1SjJ4ispOb-0" value="" style="group" vertex="1" connectable="0" parent="18L6s5909YkoWLZlHoYE-1">
          <mxGeometry x="548" y="140" width="373" height="230" as="geometry" />
        </mxCell>
        <mxCell id="sObYYztATC1SjJ4ispOb-1" value="" style="shape=note;whiteSpace=wrap;html=1;backgroundOutline=1;darkOpacity=0.05;strokeWidth=2;align=left;labelPosition=center;verticalLabelPosition=middle;verticalAlign=middle;fillColor=#ffe6cc;strokeColor=#d79b00;" vertex="1" parent="sObYYztATC1SjJ4ispOb-0">
          <mxGeometry width="373" height="230" as="geometry" />
        </mxCell>
        <mxCell id="sObYYztATC1SjJ4ispOb-2" value="&lt;div&gt;&lt;font face=&quot;Courier New&quot;&gt;&lt;span style=&quot;font-size: 16px;&quot;&gt;&quot;&lt;b&gt;id&lt;/b&gt;&quot;: SOLR_STRING,&lt;/span&gt;&lt;/font&gt;&lt;/div&gt;&lt;div&gt;&lt;font face=&quot;Courier New&quot;&gt;&lt;span style=&quot;font-size: 16px;&quot;&gt;&quot;&lt;b&gt;main_id&lt;/b&gt;&quot;:&amp;nbsp;&lt;/span&gt;&lt;/font&gt;&lt;span style=&quot;font-family: &amp;quot;Courier New&amp;quot;; font-size: 16px;&quot;&gt;SOLR_STRING&lt;/span&gt;&lt;font face=&quot;Courier New&quot;&gt;&lt;span style=&quot;font-size: 16px;&quot;&gt;,&lt;/span&gt;&lt;/font&gt;&lt;/div&gt;&lt;div&gt;&lt;font face=&quot;Courier New&quot;&gt;&lt;span style=&quot;font-size: 16px;&quot;&gt;&quot;&lt;b&gt;node_type&lt;/b&gt;&quot;:&amp;nbsp;&lt;/span&gt;&lt;/font&gt;&lt;span style=&quot;font-family: &amp;quot;Courier New&amp;quot;; font-size: 16px;&quot;&gt;&quot;&lt;b&gt;survey&lt;/b&gt;&quot;&lt;/span&gt;&lt;font face=&quot;Courier New&quot;&gt;&lt;span style=&quot;font-size: 16px;&quot;&gt;,&lt;/span&gt;&lt;/font&gt;&lt;/div&gt;&lt;div&gt;&lt;font face=&quot;Courier New&quot;&gt;&lt;span style=&quot;font-size: 16px;&quot;&gt;&quot;&lt;b&gt;tenant&lt;/b&gt;&quot;:&amp;nbsp;&lt;/span&gt;&lt;/font&gt;&lt;span style=&quot;font-family: &amp;quot;Courier New&amp;quot;; font-size: 16px;&quot;&gt;SOLR_INTEGER&lt;/span&gt;&lt;font face=&quot;Courier New&quot;&gt;&lt;span style=&quot;font-size: 16px;&quot;&gt;,&lt;/span&gt;&lt;/font&gt;&lt;/div&gt;&lt;div&gt;&lt;font face=&quot;Courier New&quot;&gt;&lt;span style=&quot;font-size: 16px;&quot;&gt;&quot;&lt;b&gt;srv_monthlyincome_i&lt;/b&gt;&quot;:&amp;nbsp;&lt;/span&gt;&lt;/font&gt;&lt;span style=&quot;font-family: &amp;quot;Courier New&amp;quot;; font-size: 16px;&quot;&gt;SOLR_INTEGER&lt;/span&gt;&lt;font face=&quot;Courier New&quot;&gt;&lt;span style=&quot;font-size: 16px;&quot;&gt;,&lt;/span&gt;&lt;/font&gt;&lt;/div&gt;&lt;div&gt;&lt;font face=&quot;Courier New&quot;&gt;&lt;span style=&quot;font-size: 16px;&quot;&gt;&quot;&lt;b&gt;srv_monthlyspending_i&lt;/b&gt;&quot;:&amp;nbsp;&lt;/span&gt;&lt;/font&gt;&lt;span style=&quot;font-family: &amp;quot;Courier New&amp;quot;; font-size: 16px;&quot;&gt;SOLR_INTEGER&lt;/span&gt;&lt;font face=&quot;Courier New&quot;&gt;&lt;span style=&quot;font-size: 16px;&quot;&gt;,&lt;/span&gt;&lt;/font&gt;&lt;/div&gt;&lt;div&gt;&lt;font face=&quot;Courier New&quot;&gt;&lt;span style=&quot;font-size: 16px;&quot;&gt;&quot;&lt;b&gt;srv_martialstatus_s&lt;/b&gt;&quot;:&amp;nbsp;&lt;/span&gt;&lt;/font&gt;&lt;span style=&quot;font-family: &amp;quot;Courier New&amp;quot;; font-size: 16px;&quot;&gt;SOLR_STRING&lt;/span&gt;&lt;font face=&quot;Courier New&quot;&gt;&lt;span style=&quot;font-size: 16px;&quot;&gt;,&lt;/span&gt;&lt;/font&gt;&lt;/div&gt;&lt;div&gt;&lt;font face=&quot;Courier New&quot;&gt;&lt;span style=&quot;font-size: 16px;&quot;&gt;&quot;&lt;b&gt;srv_children_i&lt;/b&gt;&quot;:&amp;nbsp;&lt;/span&gt;&lt;/font&gt;&lt;span style=&quot;font-family: &amp;quot;Courier New&amp;quot;; font-size: 16px;&quot;&gt;SOLR_INTEGER&lt;/span&gt;&lt;font face=&quot;Courier New&quot;&gt;&lt;span style=&quot;font-size: 16px;&quot;&gt;,&lt;/span&gt;&lt;/font&gt;&lt;/div&gt;&lt;div&gt;&lt;font style=&quot;background-color: transparent;&quot; face=&quot;Courier New&quot;&gt;&lt;font color=&quot;rgba(0, 0, 0, 0)&quot;&gt;&lt;span style=&quot;font-size: 16px;&quot;&gt;&quot;&lt;/span&gt;&lt;/font&gt;&lt;font&gt;&lt;font&gt;&lt;span style=&quot;font-size: 16px;&quot;&gt;&lt;b&gt;srv_favcolor_ss&lt;/b&gt;&lt;/span&gt;&lt;font color=&quot;rgba(0, 0, 0, 0)&quot;&gt;&lt;span style=&quot;font-size: 16px;&quot;&gt;&quot;:&amp;nbsp;&lt;/span&gt;&lt;/font&gt;&lt;/font&gt;&lt;/font&gt;&lt;/font&gt;&lt;span style=&quot;font-family: &amp;quot;Courier New&amp;quot;; font-size: 16px;&quot;&gt;SOLR_STRING[]&lt;/span&gt;&lt;font style=&quot;background-color: transparent; color: light-dark(rgb(0, 0, 0), rgb(255, 255, 255));&quot; face=&quot;Courier New&quot;&gt;&lt;span style=&quot;font-size: 16px;&quot;&gt;,&lt;/span&gt;&lt;/font&gt;&lt;/div&gt;&lt;div&gt;&lt;font face=&quot;Courier New&quot;&gt;&lt;span style=&quot;font-size: 16px;&quot;&gt;&quot;&lt;b&gt;srv_gender_s&lt;/b&gt;&quot;:&amp;nbsp;&lt;/span&gt;&lt;/font&gt;&lt;span style=&quot;font-family: &amp;quot;Courier New&amp;quot;; font-size: 16px;&quot;&gt;SOLR_STRING,&lt;/span&gt;&lt;/div&gt;&lt;div&gt;&lt;div&gt;&lt;font face=&quot;Courier New&quot;&gt;&lt;span style=&quot;font-size: 16px;&quot;&gt;...&lt;/span&gt;&lt;/font&gt;&lt;/div&gt;&lt;/div&gt;" style="text;html=1;align=left;verticalAlign=top;whiteSpace=wrap;rounded=0;" vertex="1" parent="sObYYztATC1SjJ4ispOb-0">
          <mxGeometry x="2" y="5" width="370" height="225" as="geometry" />
        </mxCell>
        <mxCell id="ZRFxIFx5Lf4VDHoxLbEA-0" value="&lt;div&gt;&lt;span style=&quot;font-size: 10px;&quot;&gt;- main_id is the identifier of the individual (record) in the base audience&lt;/span&gt;&lt;/div&gt;&lt;div&gt;&lt;span style=&quot;font-size: 10px;&quot;&gt;- The column &lt;b&gt;tenant scope&lt;/b&gt;s the data.&lt;/span&gt;&lt;/div&gt;" style="shape=note;whiteSpace=wrap;html=1;backgroundOutline=1;darkOpacity=0.05;size=13;labelBackgroundColor=none;fillColor=#FFFFCC;gradientColor=none;align=left;verticalAlign=middle;" vertex="1" parent="18L6s5909YkoWLZlHoYE-1">
          <mxGeometry x="557" y="90" width="340" height="40.5" as="geometry" />
        </mxCell>
        <mxCell id="ZRFxIFx5Lf4VDHoxLbEA-1" style="rounded=0;orthogonalLoop=1;jettySize=auto;html=1;endArrow=none;startFill=0;dashed=1;dashPattern=8 8;exitX=0.5;exitY=1;exitDx=0;exitDy=0;exitPerimeter=0;" edge="1" parent="18L6s5909YkoWLZlHoYE-1" source="ZRFxIFx5Lf4VDHoxLbEA-0">
          <mxGeometry relative="1" as="geometry">
            <mxPoint x="8" y="705" as="sourcePoint" />
            <mxPoint x="638" y="141" as="targetPoint" />
          </mxGeometry>
        </mxCell>
        <mxCell id="18L6s5909YkoWLZlHoYE-6" value="&lt;font style=&quot;font-size: 16px;&quot; face=&quot;Courier New&quot;&gt;&lt;b&gt;pos&lt;/b&gt;&lt;/font&gt;" style="shape=note;whiteSpace=wrap;html=1;backgroundOutline=1;darkOpacity=0.05;strokeWidth=2;align=left;labelPosition=center;verticalLabelPosition=middle;verticalAlign=middle;fillColor=#d5e8d4;strokeColor=#82b366;size=16;" vertex="1" parent="18L6s5909YkoWLZlHoYE-1">
          <mxGeometry x="470" y="339" width="60" height="30" as="geometry" />
        </mxCell>
        <mxCell id="ZRFxIFx5Lf4VDHoxLbEA-6" value="" style="endArrow=block;html=1;rounded=0;strokeWidth=3;endFill=1;entryX=0;entryY=0;entryDx=370;entryDy=155;entryPerimeter=0;exitX=0.003;exitY=0.461;exitDx=0;exitDy=0;exitPerimeter=0;" edge="1" parent="18L6s5909YkoWLZlHoYE-1" source="sObYYztATC1SjJ4ispOb-1" target="18L6s5909YkoWLZlHoYE-2">
          <mxGeometry width="50" height="50" relative="1" as="geometry">
            <mxPoint x="517" y="110" as="sourcePoint" />
            <mxPoint x="440" y="125" as="targetPoint" />
          </mxGeometry>
        </mxCell>
        <mxCell id="ZRFxIFx5Lf4VDHoxLbEA-7" value="*" style="text;html=1;align=center;verticalAlign=middle;whiteSpace=wrap;rounded=0;fontSize=18;" vertex="1" parent="18L6s5909YkoWLZlHoYE-1">
          <mxGeometry x="510" y="225" width="60" height="30" as="geometry" />
        </mxCell>
      </root>
    </mxGraphModel>
  </diagram>
</mxfile>
